<?xml version="1.0" standalone="no"?>
<!DOCTYPE svg PUBLIC "-//W3C//DTD SVG 20010904//EN"
 "http://www.w3.org/TR/2001/REC-SVG-20010904/DTD/svg10.dtd">
<svg version="1.0" xmlns="http://www.w3.org/2000/svg"
 width="720.000000pt" height="720.000000pt" viewBox="0 0 720.000000 720.000000"
 preserveAspectRatio="xMidYMid meet">

<g transform="translate(0.000000,720.000000) scale(0.100000,-0.100000)"
fill="#000000" stroke="none">
<path d="M4785 7190 c-4 -6 -12 -7 -18 -3 -8 5 -8 2 1 -9 10 -12 10 -17 -1
-27 -8 -6 -18 -7 -23 -3 -4 4 -3 0 4 -9 10 -13 10 -19 -1 -28 -8 -6 -17 -7
-21 -3 -5 4 -6 -4 -4 -18 2 -16 -1 -24 -9 -22 -7 1 -13 -8 -14 -20 -1 -27 -33
-84 -46 -81 -5 1 -10 -8 -10 -19 -1 -11 -10 -29 -19 -39 -10 -11 -22 -29 -29
-42 -6 -12 -17 -21 -23 -19 -7 1 -12 -8 -12 -21 0 -22 -41 -72 -51 -63 -3 3
-5 -4 -6 -15 -2 -26 -22 -51 -34 -43 -5 3 -8 0 -7 -8 2 -7 -3 -12 -9 -10 -8 1
-13 -8 -13 -22 0 -25 -22 -50 -34 -38 -4 4 -6 2 -4 -4 2 -6 -12 -28 -29 -47
-18 -20 -33 -41 -33 -47 0 -6 -4 -8 -10 -5 -5 3 -10 -1 -10 -10 0 -9 -4 -13
-10 -10 -5 3 -10 -1 -10 -10 0 -9 -4 -13 -10 -10 -5 3 -10 -1 -10 -10 0 -9 -4
-13 -10 -10 -5 3 -10 -1 -10 -10 0 -9 -4 -13 -10 -10 -5 3 -10 -1 -10 -10 0
-9 -4 -13 -10 -10 -5 3 -10 -1 -10 -10 0 -9 -4 -13 -10 -10 -5 3 -10 1 -10 -5
0 -12 -29 -45 -39 -45 -3 0 -5 -4 -3 -10 2 -5 -5 -2 -16 8 -15 14 -19 14 -19
2 0 -8 4 -12 9 -9 4 3 8 -2 8 -11 0 -9 -4 -13 -10 -10 -5 3 -10 -1 -10 -10 0
-9 -4 -13 -10 -10 -5 3 -10 -1 -10 -10 0 -9 -4 -13 -10 -10 -5 3 -10 -2 -10
-11 0 -10 -3 -14 -6 -11 -4 4 -15 -3 -25 -15 -16 -18 -21 -19 -36 -7 -16 12
-17 12 -6 -2 11 -13 9 -20 -10 -37 -13 -12 -27 -19 -30 -15 -4 3 -7 1 -7 -6 0
-19 -23 -38 -42 -35 -11 1 -15 -3 -11 -14 5 -11 2 -14 -10 -9 -11 4 -17 1 -17
-9 0 -8 -4 -12 -10 -9 -5 3 -10 -2 -10 -11 0 -10 -3 -15 -6 -11 -4 3 -12 1
-20 -6 -37 -34 -46 -38 -61 -33 -14 6 -14 4 -2 -11 8 -9 9 -14 3 -10 -7 4 -17
0 -24 -8 -7 -8 -16 -12 -21 -9 -5 3 -9 -2 -9 -10 0 -9 -7 -13 -19 -11 -19 3
-22 -9 -8 -32 18 -29 -47 -93 -93 -93 -35 0 -43 10 -25 30 13 14 13 17 1 17
-8 0 -14 -5 -13 -11 1 -6 -8 -11 -20 -10 -12 0 -21 -2 -20 -5 1 -3 -1 -7 -5
-9 -5 -1 -19 -12 -32 -23 -13 -12 -28 -21 -33 -21 -4 0 -16 -7 -25 -15 -10 -9
-18 -12 -18 -8 0 4 -8 1 -17 -7 -10 -9 -26 -14 -35 -13 -10 2 -16 0 -15 -3 1
-4 -1 -7 -4 -7 -4 0 -15 -8 -25 -17 -19 -17 -22 -18 -50 -18 -9 0 -12 -5 -8
-12 4 -7 3 -10 -1 -5 -5 4 -16 0 -26 -9 -10 -9 -24 -14 -31 -12 -7 3 -19 -2
-27 -9 -8 -8 -22 -12 -32 -10 -12 3 -19 0 -19 -10 0 -8 -4 -12 -9 -8 -5 3 -15
-1 -23 -8 -7 -7 -20 -12 -28 -12 -8 0 -20 -5 -27 -11 -7 -6 -26 -10 -42 -9
-18 1 -29 -2 -28 -9 1 -6 -7 -11 -18 -11 -11 0 -26 -6 -34 -13 -8 -8 -21 -12
-30 -9 -9 2 -22 -2 -28 -9 -7 -7 -20 -11 -30 -10 -10 2 -24 -3 -31 -11 -9 -8
-26 -12 -43 -9 -20 3 -29 0 -29 -9 0 -10 -11 -14 -37 -12 -21 1 -43 -3 -50 -9
-6 -6 -30 -10 -52 -9 -23 1 -39 -2 -38 -9 1 -5 -11 -10 -28 -10 -16 -1 -33 -5
-37 -10 -4 -6 -13 -4 -23 4 -13 10 -15 11 -13 1 2 -8 -5 -15 -15 -16 -9 -2
-15 1 -12 5 3 5 1 12 -5 15 -6 4 -9 3 -8 -2 2 -4 -1 -9 -6 -10 -5 -1 -13 -7
-17 -15 -6 -8 -9 -9 -9 -1 0 8 -8 8 -28 -3 -15 -7 -45 -12 -65 -11 -20 2 -37
0 -37 -5 0 -5 -10 -4 -21 3 -15 8 -19 8 -15 0 8 -12 10 -12 -104 -17 -47 -2
-101 -5 -120 -7 -19 -2 -39 -1 -45 3 -12 8 -26 7 -42 -3 -6 -4 -15 -3 -18 3
-5 8 -11 8 -20 0 -9 -8 -15 -8 -20 0 -3 6 -12 7 -18 3 -20 -12 -38 -12 -30 0
4 7 1 7 -9 -1 -9 -7 -19 -9 -22 -4 -6 10 -45 10 -61 0 -5 -3 -35 -4 -65 -2
-30 3 -78 6 -107 7 -28 2 -59 10 -69 18 -11 8 -15 9 -10 2 4 -8 2 -13 -8 -13
-8 0 -17 4 -20 8 -3 5 -22 7 -42 6 -20 -2 -42 0 -48 4 -6 3 -22 7 -36 8 -47 2
-103 14 -117 25 -10 9 -13 8 -13 -2 0 -9 -3 -10 -8 -4 -4 6 -16 11 -27 11 -11
0 -19 5 -18 10 1 6 -4 11 -12 11 -8 0 -11 -5 -8 -11 4 -6 -1 -5 -10 3 -12 9
-17 10 -17 2 0 -7 -5 -9 -10 -6 -6 4 -22 9 -37 11 -15 3 -31 8 -37 12 -6 3
-20 6 -31 7 -12 0 -19 6 -17 15 2 8 0 12 -4 7 -4 -4 -16 1 -27 10 -11 10 -17
13 -14 6 11 -18 -9 -25 -23 -7 -9 10 -15 11 -20 4 -4 -7 -17 -3 -35 12 -16 12
-25 16 -20 9 5 -9 4 -12 -2 -8 -5 3 -22 8 -38 11 -33 6 -81 39 -78 53 1 6 -4
10 -12 10 -8 0 -12 -4 -9 -8 9 -15 -14 -19 -26 -4 -7 8 -16 12 -21 10 -12 -8
-81 23 -75 33 2 4 -8 7 -25 6 -16 -1 -32 3 -36 9 -3 5 -1 7 5 3 6 -3 13 -2 16
3 4 5 -6 7 -23 5 -16 -3 -35 1 -43 8 -7 7 -20 14 -28 16 -8 2 -26 11 -40 20
-14 9 -29 17 -35 17 -5 1 -9 6 -8 13 2 6 -4 9 -13 5 -8 -3 -26 5 -41 18 -14
13 -23 18 -19 11 11 -18 -54 15 -72 37 -8 9 -10 10 -7 3 6 -11 3 -11 -14 0
-12 7 -19 19 -16 26 3 7 0 10 -6 7 -13 -9 -70 15 -64 25 3 5 0 12 -6 16 -8 5
-9 3 -4 -6 5 -8 3 -11 -6 -8 -8 3 -13 12 -13 20 1 8 -5 15 -12 15 -12 0 -14
-472 -14 -2974 l0 -2973 3600 0 3600 0 0 1314 0 1313 -187 2 c-165 1 -232 4
-240 11 -13 10 -91 3 -106 -9 -10 -9 -17 -11 -15 -6 2 6 -1 10 -5 10 -12 0
-46 78 -40 90 3 5 -6 -1 -19 -15 -14 -14 -23 -29 -21 -33 3 -5 10 -4 16 2 19
19 35 -6 28 -42 -6 -25 -12 -32 -29 -31 -12 0 -22 -2 -22 -6 0 -3 -6 -14 -13
-24 -13 -17 -14 -17 -28 0 -7 10 -9 15 -3 11 7 -4 17 0 24 8 10 12 8 14 -9 10
-11 -2 -23 1 -27 6 -4 6 -10 6 -19 -1 -10 -8 -15 -8 -20 0 -5 8 -11 8 -19 1
-9 -8 -13 -7 -13 2 0 9 19 13 69 12 64 -1 99 7 87 19 -10 10 -214 15 -237 5
-13 -5 -26 -18 -29 -29 -3 -11 -9 -17 -14 -14 -5 3 -7 9 -4 14 3 4 -3 7 -12 5
-10 -1 -25 4 -35 12 -11 10 -18 11 -23 3 -3 -5 -12 -7 -18 -3 -7 4 -19 8 -27
8 -8 0 -21 4 -29 9 -11 7 -12 6 -6 -5 7 -11 6 -12 -6 -2 -12 10 -18 10 -29 0
-10 -9 -11 -9 -6 1 9 15 1 15 -26 1 -16 -9 -19 -8 -13 2 6 9 4 11 -8 6 -19 -7
-27 11 -27 63 0 61 20 74 104 66 39 -3 112 -9 161 -12 l91 -7 9 43 c14 59 48
79 105 60 22 -7 43 -18 47 -22 3 -5 -9 -32 -26 -60 -30 -48 -34 -68 -12 -53 6
3 11 12 11 18 0 13 37 31 85 43 17 4 64 38 105 76 41 37 81 68 88 68 18 0 -40
-79 -95 -131 -24 -23 -43 -43 -40 -45 2 -2 26 -4 54 -5 47 -2 55 1 99 40 32
28 53 39 63 35 9 -4 82 -9 164 -12 l147 -4 0 191 c0 180 -1 191 -19 191 -45 0
-49 55 -5 66 13 3 24 10 24 15 0 5 -6 6 -14 3 -8 -3 -17 0 -21 6 -4 7 2 14 14
17 21 5 21 8 19 292 l-3 286 -22 -1 c-13 -1 -23 3 -23 7 0 5 11 9 25 9 22 0
25 4 25 34 0 21 -6 36 -15 40 -8 3 -15 15 -15 26 0 11 7 20 15 20 13 0 15 183
15 1590 l0 1590 -1204 0 c-805 0 -1207 -3 -1211 -10z m75 -425 c0 -33 4 -45
15 -45 14 0 20 14 27 65 2 11 10 20 18 20 11 0 15 -11 14 -42 -1 -36 2 -43 19
-43 13 0 17 -5 13 -16 -3 -9 -6 -18 -6 -20 0 -2 -9 -4 -20 -4 -14 0 -20 -7
-20 -24 0 -15 7 -26 20 -29 29 -8 26 -37 -5 -37 -21 0 -26 -6 -31 -40 -5 -31
-11 -40 -27 -40 -17 0 -19 5 -13 40 5 35 4 40 -13 40 -14 0 -20 -10 -25 -40
-5 -31 -11 -40 -26 -40 -18 0 -19 5 -14 39 5 30 3 39 -10 44 -23 9 -20 37 4
37 11 0 20 4 20 9 0 5 3 16 6 25 4 12 0 16 -16 16 -27 0 -24 32 5 40 13 3 21
15 23 35 8 66 42 74 42 10z m171 25 c4 -8 18 -55 31 -105 l22 -89 34 107 c26
84 37 107 51 107 20 0 28 -16 61 -128 12 -41 26 -70 30 -65 4 4 15 42 25 83
22 93 31 110 55 110 30 0 29 -9 -32 -215 -21 -72 -26 -80 -50 -83 -24 -3 -28
1 -38 40 -19 71 -42 142 -50 151 -3 4 -16 -28 -29 -70 -32 -113 -37 -123 -63
-123 -20 0 -26 9 -42 68 -11 37 -30 100 -42 141 -13 41 -21 78 -18 83 9 13 46
5 55 -12z m579 -30 l0 -49 30 5 c70 14 100 -18 100 -107 0 -42 -5 -55 -29 -79
-23 -23 -34 -28 -57 -23 -16 3 -44 6 -61 5 l-33 -2 0 150 0 150 25 0 c23 0 25
-3 25 -50z m311 31 c20 -16 21 -21 10 -35 -11 -13 -17 -14 -40 -2 -36 18 -74
4 -69 -26 2 -15 19 -30 53 -47 59 -31 77 -60 64 -104 -13 -47 -41 -69 -87 -70
-43 -1 -92 19 -92 37 1 31 17 38 49 22 44 -23 81 -12 81 24 0 22 -7 30 -42 45
-65 28 -78 43 -78 87 0 53 35 88 88 88 24 0 49 -8 63 -19z m936 8 c18 -18 3
-49 -22 -49 -27 0 -36 17 -23 43 10 19 29 22 45 6z m103 -49 c0 -25 4 -30 25
-30 18 0 25 -5 25 -20 0 -15 -7 -20 -25 -20 -24 0 -25 -2 -25 -65 0 -57 2 -65
19 -65 10 0 24 -6 30 -13 23 -28 -53 -43 -84 -17 -11 9 -15 34 -15 83 0 55 -4
73 -17 83 -17 12 -17 14 5 34 12 11 22 30 22 40 0 13 7 20 20 20 16 0 20 -7
20 -30z m-1451 -51 c22 -24 36 -72 26 -89 -3 -5 -30 -8 -60 -6 -64 4 -75 -2
-64 -31 10 -27 49 -39 78 -23 22 11 41 6 41 -10 0 -14 -52 -37 -80 -35 -41 3
-71 24 -87 62 -31 75 13 153 86 153 28 0 46 -6 60 -21z m509 -66 c2 -72 5 -83
23 -88 37 -12 49 11 49 96 0 78 0 79 25 79 l25 0 0 -104 0 -104 -42 0 c-24 0
-52 -3 -64 -5 -45 -11 -64 28 -64 133 0 79 1 81 23 78 20 -3 22 -9 25 -85z
m300 75 c8 -7 16 -7 26 1 8 7 32 11 53 9 50 -4 63 -31 63 -130 0 -77 0 -78
-25 -78 -25 0 -25 1 -25 78 0 81 -10 105 -39 94 -26 -9 -31 -23 -31 -99 0 -71
-1 -73 -25 -73 -25 0 -25 1 -25 84 0 88 -7 102 -42 84 -15 -7 -18 -23 -18 -88
0 -79 0 -80 -25 -80 l-25 0 0 103 0 104 63 0 c34 1 68 -4 75 -9z m309 0 c8 -6
19 -6 32 1 11 6 33 11 50 11 47 0 61 -30 61 -127 0 -82 0 -83 -25 -83 -25 0
-25 1 -25 80 0 65 -3 81 -17 88 -36 18 -43 4 -43 -84 0 -83 0 -84 -25 -84 -25
0 -25 1 -25 79 0 77 -6 94 -35 96 -27 3 -35 -20 -35 -96 0 -78 0 -79 -25 -79
l-25 0 0 103 0 104 63 0 c34 1 67 -3 74 -9z m233 -93 l0 -105 -25 0 -25 0 0
105 0 105 25 0 25 0 0 -105z m-6732 -1235 c58 -31 72 -45 72 -74 0 -25 -2 -26
-54 -26 -39 0 -60 6 -80 21 -29 23 -36 69 -11 69 8 0 15 7 15 15 0 20 13 19
58 -5z m1789 -45 c48 -29 55 -55 21 -79 -48 -34 -148 -2 -148 47 0 17 10 28
33 39 44 21 45 21 94 -7z m2658 -52 c-5 -10 -9 -21 -9 -25 -1 -3 -4 -10 -8
-14 -12 -11 -9 25 3 48 13 24 25 16 14 -9z m-827 -14 c36 -34 37 -37 17 -63
-22 -29 -107 -29 -136 0 -25 26 -18 45 27 74 41 26 54 24 92 -11z m624 -30
c26 -18 -15 -30 -82 -25 -79 6 -108 15 -88 28 16 10 152 8 170 -3z m148 -361
c0 -48 -12 -68 -37 -68 -21 0 -24 4 -19 23 3 12 6 32 6 45 0 17 6 22 25 22 19
0 25 -5 25 -22z m-3857 -33 c51 -27 52 -61 2 -71 -49 -9 -95 11 -95 42 0 14 6
24 14 24 8 0 17 7 20 16 3 8 9 14 13 12 5 -2 25 -13 46 -23z m3907 -10 c0 -14
-4 -25 -10 -25 -5 0 -10 11 -10 25 0 14 5 25 10 25 6 0 10 -11 10 -25z m-2422
-64 c18 -11 11 -71 -10 -85 -13 -8 -22 -6 -37 8 -12 11 -21 16 -21 11 0 -4 -6
-2 -14 5 -17 13 -10 44 9 37 6 -3 17 4 23 14 13 20 29 24 50 10z m2092 -16 c0
-16 -28 -19 -69 -8 -23 6 -23 7 -5 14 34 13 74 10 74 -6z m253 8 c-7 -2 -19
-2 -25 0 -7 3 -2 5 12 5 14 0 19 -2 13 -5z m-812 -30 c51 -30 49 -56 -7 -79
-30 -12 -38 -12 -62 0 -45 23 -55 40 -34 58 21 18 54 37 65 38 5 0 22 -8 38
-17z m804 -13 c-3 -5 -11 -10 -16 -10 -6 0 -7 5 -4 10 3 6 11 10 16 10 6 0 7
-4 4 -10z m-3162 -244 c30 -9 19 -26 -17 -26 -37 0 -51 12 -42 36 4 10 10 12
23 5 10 -5 26 -12 36 -15z m-323 -97 c0 -20 -24 -26 -35 -9 -4 6 -4 17 -1 25
7 20 36 7 36 -16z m329 -18 c9 -16 7 -20 -14 -23 -14 -3 -25 -1 -25 4 0 5 -4
6 -10 3 -5 -3 -10 3 -10 14 0 28 45 29 59 2z m71 -11 c0 -5 -7 -10 -15 -10 -8
0 -15 5 -15 10 0 6 7 10 15 10 8 0 15 -4 15 -10z m-810 -39 c15 -29 12 -33
-10 -14 -21 19 -26 33 -10 33 5 0 14 -9 20 -19z m1805 9 c3 -5 -5 -16 -19 -25
-19 -13 -29 -14 -45 -5 -37 19 -23 38 31 39 15 1 29 -3 33 -9z m-1038 -20 c21
-24 51 -26 59 -5 9 24 34 18 34 -8 0 -26 -17 -47 -39 -47 -8 0 -28 -11 -45
-24 -39 -29 -96 -24 -96 9 0 14 14 19 48 18 15 -1 15 3 2 27 -11 20 -4 50 11
50 5 0 17 -9 26 -20z m-949 -21 c7 -12 11 -23 8 -26 -7 -7 -25 6 -36 28 -15
27 11 26 28 -2z m3321 2 c8 -5 11 -16 7 -26 -5 -14 -15 -17 -52 -12 -53 6 -77
23 -54 37 19 12 81 13 99 1z m-3116 -100 c10 -17 14 -31 9 -31 -16 0 -93 80
-87 91 9 14 56 -23 78 -60z m1032 24 c0 -22 -40 -34 -57 -17 -18 18 -1 39 29
38 21 -1 28 -6 28 -21z m-407 -32 c2 -13 -1 -23 -7 -23 -6 0 -11 -19 -11 -41
0 -46 -19 -119 -31 -119 -4 0 -15 8 -24 17 -14 13 -16 28 -11 77 3 34 6 74 6
89 0 27 2 28 37 25 31 -2 39 -7 41 -25z m-507 -5 c11 -18 1 -28 -29 -28 -37 0
-54 13 -46 34 5 14 14 17 37 12 17 -4 34 -12 38 -18z m669 -36 c0 -4 15 -8 34
-8 45 0 102 -49 98 -83 -2 -13 1 -28 7 -34 8 -8 11 -8 11 0 0 7 9 10 23 6 12
-3 32 -6 45 -7 12 0 22 -6 22 -12 0 -6 -22 -9 -55 -8 -48 2 -55 -1 -61 -20 -3
-11 -16 -31 -27 -43 -18 -20 -18 -23 -4 -23 9 0 17 6 17 13 0 8 3 9 8 1 4 -6
15 -10 25 -8 9 1 17 -3 17 -10 0 -7 -17 -12 -45 -12 -25 0 -45 4 -45 8 0 5 -8
8 -17 8 -15 0 -16 -2 -3 -10 15 -10 13 -11 -27 -14 -13 0 -17 6 -15 19 3 20 3
20 -11 1 -8 -10 -19 -16 -25 -12 -7 4 -12 3 -12 -2 0 -5 -7 -9 -15 -9 -12 0
-15 13 -15 58 0 63 -6 71 -57 74 -40 2 -58 17 -50 40 10 25 49 35 74 19 31
-20 33 -18 33 21 0 34 15 43 32 20 4 -5 8 0 8 13 0 13 6 22 15 22 8 0 15 -4
15 -8z m484 2 c32 -12 17 -34 -22 -34 -45 0 -56 8 -41 27 12 14 37 17 63 7z
m-1361 -13 c17 -1 26 -41 8 -41 -5 0 -11 -22 -15 -48 -11 -82 -48 -105 -75
-46 -28 63 -1 148 46 139 10 -2 26 -4 36 -4z m3860 -15 c13 -20 14 -26 3 -35
-19 -16 -62 25 -45 45 16 20 24 18 42 -10z m-4225 -18 c21 -21 13 -37 -22 -43
-41 -8 -76 8 -76 35 0 17 7 20 43 20 24 0 48 -5 55 -12z m1537 -23 c8 -19 24
-39 35 -45 10 -5 65 -13 122 -16 57 -3 114 -7 128 -9 14 -2 50 -4 80 -4 61 -1
94 -15 72 -29 -7 -5 -36 -5 -65 0 -64 10 -156 8 -181 -4 -12 -7 -22 -6 -29 1
-6 6 -19 11 -29 11 -10 0 -18 4 -18 9 0 4 -19 5 -42 0 -24 -4 -55 -5 -70 -2
-24 5 -26 8 -17 25 8 15 7 28 -5 53 -19 39 -20 45 -5 45 5 0 17 -16 24 -35z
m463 -17 c-3 -20 -8 -23 -38 -20 -42 4 -44 6 -37 27 4 10 19 15 42 15 32 0 36
-3 33 -22z m-1587 -68 c13 -8 19 -7 19 0 0 6 12 10 27 8 33 -4 47 -44 31 -91
-27 -79 -68 -80 -68 -2 0 40 -2 44 -30 50 -21 5 -30 13 -30 26 0 21 21 25 51
9z m3815 -31 c9 -16 -12 -33 -31 -25 -14 5 -15 9 -5 21 15 18 26 19 36 4z
m-2761 -43 c31 6 138 6 160 1 11 -2 25 -1 30 3 6 5 30 5 55 0 25 -5 77 -9 115
-9 39 0 91 -5 117 -9 33 -7 49 -6 52 2 2 6 5 3 5 -6 1 -15 -8 -18 -46 -18
-191 -2 -278 0 -348 5 -44 3 -104 8 -134 10 -62 4 -69 9 -50 31 11 14 14 14
19 1 3 -8 14 -13 25 -11z m3218 -23 c-3 -7 -9 -13 -14 -13 -11 0 -12 34 -2 43
9 10 22 -13 16 -30z m2257 7 c0 -5 -6 -10 -14 -10 -8 0 -18 5 -21 10 -3 6 3
10 14 10 12 0 21 -4 21 -10z m-6295 -20 c13 -22 -3 -37 -34 -32 -22 3 -31 10
-31 23 0 14 7 19 29 19 17 0 33 -5 36 -10z m570 -26 c30 -19 49 -74 40 -114
-6 -27 -4 -30 17 -30 13 0 89 -3 171 -7 l147 -6 0 44 c1 60 31 96 87 105 39 6
45 4 73 -26 23 -25 30 -41 30 -74 0 -41 -30 -106 -50 -106 -20 0 -9 -27 31
-81 l41 -54 -6 -100 c-3 -55 -9 -153 -12 -217 -5 -87 -10 -118 -19 -118 -7 0
-38 26 -69 58 l-56 57 0 -130 c-2 -208 -9 -286 -29 -312 -10 -12 -20 -20 -23
-18 -2 2 -4 -8 -5 -23 -1 -22 0 -23 6 -8 5 13 10 16 14 9 4 -7 2 -15 -4 -18
-5 -4 -8 -12 -6 -19 3 -8 -17 -11 -72 -11 -75 1 -76 1 -74 25 3 23 2 23 -6 4
-9 -20 -21 -22 -98 -15 -7 1 -13 9 -13 19 0 14 2 15 10 2 9 -13 10 -13 11 0 0
10 3 8 9 -5 l9 -20 0 20 c1 17 3 17 11 5 9 -13 10 -13 11 0 0 10 3 8 9 -5 7
-16 9 -14 9 15 1 26 -2 31 -9 20 -8 -12 -10 -12 -10 -1 0 8 -7 11 -20 8 -11
-3 -27 1 -34 9 -13 12 -15 12 -18 -3 -3 -15 -4 -15 -20 1 -13 13 -18 14 -19 4
0 -10 -2 -10 -6 1 -5 11 -7 11 -14 0 -6 -10 -9 -11 -9 -1 0 6 -9 12 -21 12
-11 0 -18 -4 -15 -8 3 -5 -1 -9 -9 -9 -8 0 -13 5 -12 11 1 6 -35 10 -99 11
-72 0 -106 4 -118 14 -13 11 -16 11 -14 2 2 -8 -5 -15 -14 -16 -11 -2 -18 3
-19 13 0 11 -2 12 -6 5 -2 -7 -9 -13 -14 -13 -6 0 -7 5 -4 10 8 13 -18 8 -27
-5 -5 -6 -8 -6 -8 2 0 12 -24 12 -36 0 -4 -3 -12 -3 -18 1 -6 3 -33 7 -61 7
l-50 1 -3 464 c-1 255 2 468 6 472 5 5 89 9 186 9 l177 -1 -7 34 c-14 80 83
145 151 100z m-922 -21 c13 -8 7 -31 -10 -37 -27 -11 -83 13 -83 36 0 18 4 19
43 13 23 -4 45 -9 50 -12z m3903 -14 c3 -6 16 -8 27 -5 20 5 20 5 -1 -16 -21
-21 -22 -21 -42 -3 -11 10 -20 22 -20 27 0 12 28 10 36 -3z m-3252 -15 c24 -9
19 -33 -9 -40 -34 -8 -55 1 -55 26 0 21 30 27 64 14z m434 -16 c-3 -25 -34
-34 -58 -18 -13 9 -12 12 4 25 31 23 58 19 54 -7z m91 -33 c10 -11 -10 -31
-32 -33 -29 -2 -42 11 -33 35 5 11 13 13 34 8 15 -4 29 -8 31 -10z m5281 -37
c0 -9 -33 -11 -42 -2 -3 3 -3 14 -1 25 5 19 7 19 24 3 11 -9 19 -21 19 -26z
m-1313 -7 c3 -13 11 -17 26 -14 18 3 17 1 -6 -12 -33 -19 -47 -13 -47 21 0 28
20 32 27 5z m-3502 -90 c-3 -12 -13 -21 -21 -21 -9 0 -12 5 -8 13 23 40 41 46
29 8z m2989 3 c27 -10 20 -44 -9 -44 -20 0 -25 5 -25 25 0 26 7 29 34 19z
m-4309 -18 c30 -22 12 -48 -31 -44 -43 3 -69 32 -44 48 21 14 53 12 75 -4z
m5621 -11 c3 -8 3 -19 -1 -25 -10 -16 -35 7 -28 26 7 18 22 18 29 -1z m367
-41 c20 -7 23 -24 5 -24 -7 0 -23 -3 -35 -6 -18 -5 -23 -2 -23 13 0 24 10 35
24 28 6 -3 19 -8 29 -11z m-349 -36 c13 -21 1 -36 -33 -40 -27 -3 -47 21 -38
46 9 22 56 18 71 -6z m-974 2 c0 -5 -7 -10 -15 -10 -8 0 -15 5 -15 10 0 6 7
10 15 10 8 0 15 -4 15 -10z m38 -58 c3 -9 -2 -13 -14 -10 -9 1 -19 9 -22 16
-3 9 2 13 14 10 9 -1 19 -9 22 -16z m-2232 -31 c-3 -4 1 -8 9 -8 8 0 15 7 16
16 0 14 1 14 7 1 10 -21 32 -23 33 -2 0 16 1 16 8 -1 8 -22 21 -24 32 -5 6 9
9 6 10 -12 0 -21 2 -22 8 -7 4 10 11 18 16 18 5 0 12 -8 16 -18 6 -14 8 -15 8
-2 1 9 8 16 16 16 8 0 15 -7 16 -16 0 -12 3 -11 9 4 7 17 9 16 10 -10 l2 -30
8 30 c6 25 8 20 9 -28 1 -37 -3 -56 -9 -52 -5 3 -10 -2 -10 -11 0 -10 -3 -14
-7 -11 -3 4 0 18 7 32 7 14 10 28 7 32 -4 3 -7 -1 -7 -11 0 -9 -4 -14 -10 -11
-5 3 -10 -1 -10 -10 0 -10 -5 -13 -12 -9 -7 5 -8 3 -2 -7 12 -19 14 -40 4 -34
-5 3 -10 0 -13 -7 -2 -7 -3 -5 -2 4 2 10 -1 21 -6 24 -5 3 -9 -11 -9 -31 0
-22 -4 -34 -10 -30 -6 4 -8 10 -6 14 3 4 -1 8 -9 8 -8 0 -15 -7 -15 -14 0 -8
5 -11 10 -8 6 3 10 -1 10 -10 0 -9 -4 -13 -10 -10 -6 4 -10 -15 -9 -52 1 -48
3 -53 9 -28 6 22 8 25 10 10 2 -15 4 -12 10 10 8 30 8 30 9 -8 0 -21 5 -36 10
-32 5 3 11 -3 13 -12 3 -10 5 2 6 26 1 53 12 69 12 17 0 -22 4 -35 10 -31 6 3
10 -1 10 -10 0 -9 -4 -13 -10 -10 -5 3 -10 0 -10 -8 0 -7 6 -14 13 -14 16 0
20 37 6 54 -6 7 -9 18 -6 25 3 8 6 6 6 -5 1 -10 6 -15 11 -12 6 3 10 -1 10
-10 0 -9 5 -13 10 -10 6 3 10 -2 10 -11 0 -10 3 -14 7 -11 3 4 0 18 -7 32 -7
14 -10 28 -7 32 4 3 7 -1 7 -11 0 -9 5 -14 10 -11 6 3 10 -1 10 -10 0 -9 5
-13 10 -10 6 3 10 -1 10 -10 0 -9 -4 -13 -10 -10 -5 3 -10 -1 -10 -10 0 -9 4
-14 9 -10 5 3 11 -3 14 -12 2 -10 4 -2 4 17 0 19 -4 40 -9 47 -6 7 -8 18 -5
25 3 8 6 6 6 -5 1 -10 6 -15 11 -12 6 3 10 -1 10 -10 0 -9 5 -13 10 -10 6 3
10 -2 11 -12 0 -11 3 -13 6 -5 3 7 0 19 -6 26 -8 9 -7 13 4 13 12 0 15 -14 15
-61 0 -43 -3 -57 -10 -46 -5 8 -10 11 -11 5 0 -5 -4 -1 -9 10 -8 18 -9 18 -9
-5 -1 -18 -4 -21 -10 -11 -7 11 -10 10 -12 -4 -4 -18 -5 -18 -21 -1 -14 13
-18 14 -18 3 0 -7 -7 -14 -15 -14 -8 0 -15 6 -15 12 0 6 -7 12 -15 12 -10 0
-12 -4 -5 -12 7 -8 5 -12 -5 -12 -8 0 -15 7 -15 14 0 8 -4 11 -10 8 -5 -3 -10
2 -11 12 0 11 -3 13 -6 5 -3 -7 1 -20 9 -29 9 -12 9 -15 1 -9 -8 4 -13 2 -13
-8 0 -9 -7 -13 -20 -11 -13 3 -20 -2 -21 -13 0 -14 -2 -14 -7 -2 -7 15 -33 26
-31 13 4 -27 -3 -63 -11 -58 -5 3 -10 -1 -10 -10 0 -9 -4 -14 -8 -11 -5 3 -9
-1 -9 -9 0 -8 4 -12 9 -9 4 3 8 -7 8 -21 0 -14 4 -24 8 -21 4 2 9 -5 9 -17 2
-17 0 -19 -7 -7 -8 13 -10 12 -10 -3 0 -10 -4 -15 -10 -12 -5 3 -10 0 -10 -9
0 -8 -7 -13 -17 -11 -10 1 -26 -2 -35 -7 -11 -5 -18 -5 -18 0 0 5 -13 8 -30 7
-17 -1 -35 4 -42 13 -8 10 -9 13 -1 9 8 -5 8 -1 0 18 -8 16 -13 20 -15 10 -3
-15 -32 -9 -32 7 0 5 5 6 10 3 6 -3 10 1 10 9 0 20 -23 16 -32 -4 -5 -12 -7
-11 -7 3 -1 10 -5 15 -11 12 -5 -3 -10 2 -11 12 -1 13 -3 11 -9 -7 -8 -25 -8
-25 -9 -2 -1 16 -5 21 -13 16 -8 -5 -7 0 2 11 9 11 10 16 3 11 -9 -5 -13 -1
-14 11 -1 13 -3 11 -9 -7 -8 -24 -8 -23 -9 8 -1 19 -5 31 -11 27 -5 -3 -10 1
-10 9 0 9 -7 13 -19 11 -19 -3 -61 24 -61 40 0 5 9 0 20 -10 18 -16 20 -16 20
-2 0 10 -6 16 -12 15 -7 -2 -12 3 -10 10 1 8 -2 11 -7 8 -5 -4 -11 2 -14 11
-2 10 -4 3 -4 -15 0 -18 -3 -35 -6 -39 -4 -3 -7 6 -7 21 0 15 -4 25 -8 22 -5
-3 -9 1 -9 9 0 8 4 12 9 9 4 -3 8 1 8 9 0 19 30 17 31 -2 0 -12 3 -11 9 4 7
17 9 16 10 -10 1 -26 3 -27 10 -10 5 11 9 16 10 10 1 -5 5 -1 10 10 7 17 9 16
10 -10 2 -18 4 -23 7 -12 2 9 9 15 14 12 5 -4 9 1 9 9 0 10 7 13 21 11 18 -4
19 -2 7 12 -8 10 -8 14 -1 10 7 -4 13 0 16 10 3 12 5 9 6 -8 1 -15 7 -26 16
-26 11 0 12 3 3 14 -9 11 -8 13 3 11 8 -2 17 -10 21 -18 5 -12 7 -11 7 3 1 10
6 15 11 12 6 -4 10 8 10 30 0 22 -4 34 -10 30 -5 -3 -11 2 -11 12 -1 10 -5 5
-9 -12 -4 -16 -8 -22 -9 -12 -1 12 -5 16 -13 11 -8 -5 -8 -2 1 10 12 15 12 17
0 14 -8 -2 -17 -10 -21 -18 -4 -10 -7 -5 -7 13 -1 16 -5 26 -9 23 -4 -2 -8 11
-8 29 0 18 4 31 8 29 4 -3 8 2 8 11 0 9 -4 14 -8 11 -5 -3 -9 1 -9 9 0 8 4 12
9 9 4 -3 8 2 8 11 0 9 -5 13 -10 10 -6 -4 -9 -1 -8 6 2 7 -9 13 -24 14 -24 2
-28 -2 -29 -24 -1 -17 -3 -20 -6 -8 -2 9 -9 15 -14 12 -5 -4 -9 1 -9 10 0 9 5
13 10 10 6 -3 10 1 10 11 0 26 -28 -2 -32 -32 l-3 -24 -12 25 c-6 14 -7 23 -2
19 5 -3 9 3 9 12 0 10 3 15 6 11 4 -3 13 0 20 8 8 8 23 12 34 10 12 -2 20 2
20 9 0 7 6 13 14 13 11 0 12 -4 3 -19 -9 -14 -8 -21 6 -35 16 -16 17 -16 17 0
0 10 -4 15 -10 12 -5 -3 -10 1 -10 10 0 9 4 14 9 10 5 -3 12 3 15 12 3 11 4 8
3 -7 -1 -18 2 -24 13 -22 12 3 13 1 3 -9 -17 -17 -16 -36 1 -36 8 0 15 3 14 6
0 3 1 24 2 46 2 33 3 36 9 15 8 -34 26 -35 28 -2 2 24 1 24 -7 7 -8 -19 -9
-19 -9 3 -1 13 5 22 14 22 15 0 19 -10 16 -41 -1 -9 4 -16 12 -16 7 0 13 11
13 23 0 12 -4 20 -8 18 -4 -3 -8 2 -8 10 0 20 5 20 24 0 15 -14 16 -14 16 1 0
9 5 13 10 10 6 -3 10 0 10 7 0 8 3 9 8 3 12 -16 32 -16 32 1 0 8 5 12 10 9 6
-4 8 -10 6 -14z m2214 4 c16 -19 4 -35 -25 -35 -24 0 -51 31 -38 44 12 11 50
6 63 -9z m-1963 -47 c-3 -8 -6 -5 -6 6 -1 11 2 17 5 13 3 -3 4 -12 1 -19z m40
0 c-3 -8 -6 -5 -6 6 -1 11 2 17 5 13 3 -3 4 -12 1 -19z m2383 7 c20 -24 8 -50
-24 -50 -32 0 -53 23 -43 49 8 20 50 21 67 1z m-1505 -6 c10 -15 -1 -23 -20
-15 -9 3 -13 10 -10 16 8 13 22 13 30 -1z m481 -24 c-2 -7 2 -19 10 -25 40
-34 -11 -85 -61 -62 -31 14 -34 56 -5 72 11 6 18 15 15 21 -4 5 -3 14 0 19 9
15 48 -9 41 -25z m-1379 3 c-3 -8 -6 -5 -6 6 -1 11 2 17 5 13 3 -3 4 -12 1
-19z m40 -10 c-3 -7 -5 -2 -5 12 0 14 2 19 5 13 2 -7 2 -19 0 -25z m-20 -10
c-3 -8 -6 -5 -6 6 -1 11 2 17 5 13 3 -3 4 -12 1 -19z m1793 12 c0 -5 -4 -10
-10 -10 -5 0 -10 5 -10 10 0 6 5 10 10 10 6 0 10 -4 10 -10z m1538 -12 c-4
-31 -58 -40 -58 -10 0 25 8 32 37 32 20 0 24 -5 21 -22z m-2430 -23 c8 -36
-60 -49 -78 -16 -14 27 -13 31 13 40 28 11 61 -1 65 -24z m1343 20 c-1 -15
-24 -12 -29 3 -3 9 2 13 12 10 10 -1 17 -7 17 -13z m-2261 -12 c0 -8 -4 -12
-9 -8 -5 3 -12 -3 -14 -12 -3 -10 -4 -7 -4 8 1 26 27 37 27 12z m2747 -9 c-9
-9 -28 6 -21 18 4 6 10 6 17 -1 6 -6 8 -13 4 -17z m-3273 8 c3 -5 -1 -9 -9 -9
-8 0 -12 4 -9 9 3 4 7 8 9 8 2 0 6 -4 9 -8z m2354 -4 c19 -19 14 -48 -10 -57
-42 -16 -83 24 -58 54 15 18 51 20 68 3z m1391 -14 c2 -10 9 -23 17 -27 17
-10 18 -39 2 -55 -7 -7 -25 -12 -40 -12 -24 0 -28 4 -28 29 0 17 5 33 10 36 6
4 8 11 4 16 -9 15 4 41 19 37 6 -3 14 -13 16 -24z m-941 -7 c20 -15 14 -47
-10 -56 -30 -11 -58 4 -58 32 0 42 30 53 68 24z m490 -38 c2 -19 -2 -28 -15
-31 -28 -8 -63 9 -63 30 0 27 10 33 45 30 24 -2 31 -8 33 -29z m-2891 -61 c-3
-8 -6 -5 -6 6 -1 11 2 17 5 13 3 -3 4 -12 1 -19z m-20 -20 c-3 -8 -6 -5 -6 6
-1 11 2 17 5 13 3 -3 4 -12 1 -19z m3591 -1 c5 -23 -15 -47 -34 -40 -8 3 -14
18 -14 35 0 25 4 29 22 26 13 -2 24 -11 26 -21z m-3491 -19 c-3 -8 -6 -5 -6 6
-1 11 2 17 5 13 3 -3 4 -12 1 -19z m-60 -20 c-3 -8 -6 -5 -6 6 -1 11 2 17 5
13 3 -3 4 -12 1 -19z m-3276 -11 c15 4 19 0 19 -21 l0 -26 -40 20 c-23 12 -38
25 -35 31 4 5 13 6 22 0 9 -4 24 -6 34 -4z m3496 -9 c-3 -8 -6 -5 -6 6 -1 11
2 17 5 13 3 -3 4 -12 1 -19z m54 -83 c5 4 7 11 3 16 -3 5 -2 8 3 7 4 -2 8 2 8
7 0 6 -3 9 -6 8 -3 -1 -6 4 -6 11 0 7 6 13 13 13 7 0 12 -5 11 -11 -1 -6 3
-10 9 -9 6 1 11 -4 11 -12 0 -8 -5 -13 -11 -12 -6 1 -10 -7 -9 -18 1 -11 0
-14 -3 -7 -7 15 -24 6 -20 -11 1 -7 1 -9 -1 -4 -3 4 -9 5 -14 1 -5 -3 -9 2 -9
11 0 9 -4 14 -8 11 -4 -2 -8 16 -9 42 -1 34 1 41 7 27 8 -17 9 -16 11 10 2 17
4 4 6 -28 3 -34 8 -55 14 -52z m-74 63 c-3 -8 -6 -5 -6 6 -1 11 2 17 5 13 3
-3 4 -12 1 -19z m22 -40 c0 -24 -3 -37 -6 -30 -2 6 -9 10 -14 6 -5 -3 -9 7 -8
23 0 25 1 26 9 8 8 -18 9 -17 9 8 1 15 3 27 6 27 3 0 5 -19 4 -42z m-1742
-126 c17 -17 23 -33 22 -65 l-2 -42 -7 44 c-4 24 -13 49 -21 55 -8 6 -25 25
-39 41 l-25 30 24 -20 c13 -11 35 -30 48 -43z m1440 26 c-3 -8 -6 -5 -6 6 -1
11 2 17 5 13 3 -3 4 -12 1 -19z m443 -22 c0 -2 -7 -6 -15 -10 -8 -3 -15 -1
-15 4 0 6 7 10 15 10 8 0 15 -2 15 -4z m-7 -114 c12 -10 16 -10 20 0 3 7 5 4
4 -8 -1 -21 -27 -30 -27 -9 0 6 -7 12 -15 12 -11 0 -12 -4 -3 -14 6 -7 8 -16
4 -20 -3 -3 -6 -2 -6 3 0 5 -30 10 -67 9 -51 0 -70 4 -75 15 -5 12 -7 12 -7
-2 -1 -18 -31 -14 -31 4 0 5 5 6 10 3 6 -3 10 0 10 7 0 18 161 18 183 0z
m-1033 -11 c0 -4 -11 -8 -25 -9 -14 -1 -25 3 -25 9 0 5 5 7 10 4 6 -3 10 -2
10 4 0 6 7 8 15 5 8 -4 15 -9 15 -13z m3640 -11 c0 -11 -4 -20 -10 -20 -5 0
-10 9 -10 20 0 11 5 20 10 20 6 0 10 -9 10 -20z m-2543 -22 c-3 -8 -6 -5 -6 6
-1 11 2 17 5 13 3 -3 4 -12 1 -19z m-2543 -46 c3 -5 -1 -9 -9 -9 -8 0 -12 4
-9 9 3 4 7 8 9 8 2 0 6 -4 9 -8z m40 0 c3 -5 -1 -9 -9 -9 -8 0 -12 4 -9 9 3 4
7 8 9 8 2 0 6 -4 9 -8z m446 -28 c0 -8 -5 -12 -10 -9 -6 4 -8 11 -5 16 9 14
15 11 15 -7z m1073 -27 c-4 -6 4 -8 21 -5 21 4 26 1 26 -15 0 -16 -3 -17 -14
-8 -10 8 -16 9 -21 1 -3 -6 -10 -8 -15 -5 -4 3 -13 -2 -20 -10 -7 -8 -18 -15
-26 -15 -10 0 -10 5 2 28 7 15 14 38 14 51 0 23 1 24 20 6 11 -10 17 -22 13
-28z m-1053 12 c0 -13 -4 -18 -12 -13 -6 4 -8 3 -5 -2 3 -6 2 -16 -4 -24 -7
-12 -9 -12 -9 3 0 15 20 57 27 57 2 0 3 -9 3 -21z m940 11 c0 -5 -5 -10 -11
-10 -5 0 -7 5 -4 10 3 6 8 10 11 10 2 0 4 -4 4 -10z m-900 -27 c0 -8 5 -11 10
-8 6 3 10 0 10 -7 0 -9 -12 -14 -35 -14 -19 0 -35 4 -35 8 0 4 5 8 10 8 6 0
10 9 10 20 0 13 5 18 15 14 8 -4 15 -13 15 -21z m1687 -10 c6 -21 10 -39 8
-41 -1 -2 -23 2 -49 9 -43 11 -59 30 -36 44 6 3 10 -2 10 -12 0 -14 4 -12 18
10 23 37 35 34 49 -10z m87 29 c3 -5 -1 -9 -9 -9 -8 0 -12 4 -9 9 3 4 7 8 9 8
2 0 6 -4 9 -8z m344 -2 c-3 -33 4 -60 14 -54 7 5 8 3 2 -7 -14 -22 -12 -76 3
-76 8 0 10 4 3 12 -7 8 -5 12 3 12 15 0 17 -73 3 -96 -6 -10 -5 -12 2 -7 9 5
12 -24 12 -109 0 -64 -4 -114 -8 -111 -5 3 -9 -1 -9 -9 0 -8 4 -12 9 -9 4 3 8
-2 8 -11 0 -10 -5 -13 -12 -9 -8 5 -7 0 2 -11 9 -11 10 -16 3 -11 -8 4 -13 1
-13 -9 0 -9 4 -14 8 -11 5 3 9 -1 9 -8 0 -7 -6 -13 -13 -13 -7 0 -11 4 -8 8 2
4 1 10 -4 13 -4 2 -8 -6 -8 -19 0 -13 3 -22 6 -20 3 2 6 -7 6 -20 0 -13 -4
-21 -8 -19 -4 3 -8 -2 -8 -11 0 -9 4 -14 8 -11 5 3 9 -1 9 -9 0 -8 -4 -12 -9
-9 -4 3 -8 -2 -8 -11 0 -9 4 -14 8 -11 5 3 9 -1 9 -9 0 -8 -4 -12 -9 -9 -6 4
-13 -31 -10 -57 1 -3 -6 -6 -13 -6 -10 0 -12 4 -5 12 7 8 5 12 -4 12 -15 0
-16 -14 -2 -36 6 -10 5 -12 -2 -7 -7 4 -12 1 -12 -9 0 -9 4 -14 8 -11 5 3 9
-1 9 -9 0 -8 -4 -12 -9 -9 -6 4 -13 -64 -10 -97 1 -3 -6 -6 -13 -6 -11 0 -12
4 -4 13 6 7 9 19 6 26 -3 8 -6 6 -6 -5 -1 -10 -5 -16 -10 -13 -11 7 -9 -13 3
-33 6 -10 5 -12 -2 -7 -11 6 -18 -28 -13 -57 1 -5 -3 -6 -9 -2 -6 3 -8 10 -6
14 3 4 -1 8 -8 8 -7 0 -13 -6 -13 -13 0 -7 4 -11 9 -8 4 3 8 -2 8 -11 0 -9 4
-14 8 -11 5 3 9 -1 9 -9 0 -8 -5 -13 -11 -12 -6 1 -10 -4 -8 -11 1 -8 -2 -11
-8 -7 -5 3 -10 -1 -10 -10 0 -9 -5 -13 -10 -10 -6 4 -8 10 -6 14 3 4 -1 8 -8
8 -7 0 -13 -6 -13 -13 0 -7 4 -11 9 -8 4 3 8 -2 8 -11 0 -9 4 -14 8 -11 5 3 9
-1 9 -9 0 -8 -5 -13 -11 -12 -6 1 -10 -3 -9 -9 1 -6 -4 -11 -12 -11 -8 0 -12
4 -9 8 2 4 -1 11 -8 15 -7 4 -10 3 -5 -1 4 -5 -1 -17 -10 -28 -10 -11 -12 -17
-5 -13 7 4 12 1 12 -9 0 -9 4 -14 8 -11 5 3 9 -1 9 -8 0 -7 -6 -13 -13 -13 -7
0 -11 4 -8 8 2 4 0 10 -5 13 -11 7 -9 -13 3 -33 6 -10 5 -12 -2 -7 -7 4 -12 1
-12 -9 0 -9 -4 -13 -10 -10 -5 3 -10 -1 -10 -10 0 -9 -4 -13 -10 -10 -5 3 -10
-1 -10 -10 0 -10 -5 -13 -12 -9 -7 5 -8 3 -2 -7 14 -22 13 -36 -2 -36 -9 0
-11 4 -4 12 7 8 5 12 -4 12 -15 0 -16 -14 -2 -36 6 -10 5 -12 -2 -7 -7 4 -12
1 -12 -9 0 -9 -5 -13 -10 -10 -6 4 -7 12 -3 18 3 7 -3 4 -15 -7 -12 -10 -19
-22 -16 -27 2 -4 -5 -6 -16 -4 -13 2 -20 -1 -20 -11 0 -8 4 -13 8 -10 5 3 9
-1 9 -9 0 -8 -4 -12 -9 -9 -4 3 -8 -2 -8 -11 0 -9 -5 -13 -10 -10 -6 4 -7 12
-3 18 3 7 -3 4 -14 -6 -11 -9 -23 -14 -28 -10 -4 5 -4 1 1 -7 13 -24 13 -37
-2 -37 -9 0 -11 4 -4 12 7 8 5 12 -4 12 -15 0 -16 -14 -2 -36 6 -10 5 -12 -2
-7 -7 4 -12 1 -12 -9 0 -9 -4 -13 -10 -10 -5 3 -10 0 -10 -8 0 -7 -9 -23 -19
-34 -11 -12 -17 -24 -14 -27 4 -3 -1 -6 -10 -6 -9 0 -19 5 -23 12 -4 6 -3 8 3
5 6 -4 17 1 24 10 10 12 10 14 2 9 -8 -4 -13 -2 -13 8 0 8 -7 13 -17 11 -10
-1 -17 -7 -16 -13 1 -6 -5 -9 -15 -7 -9 1 -22 -2 -28 -7 -7 -5 -16 -8 -20 -7
-22 4 -34 -2 -34 -17 0 -8 -5 -12 -10 -9 -6 4 -8 10 -5 15 8 13 -24 5 -38 -10
-9 -10 -9 -11 1 -6 17 10 15 -19 -3 -34 -8 -7 -13 -15 -11 -19 3 -4 -6 -7 -19
-7 -19 0 -22 3 -13 13 5 7 14 10 19 7 15 -9 10 16 -6 32 -13 14 -15 14 -15 -1
0 -9 -4 -13 -10 -10 -6 4 -10 -5 -10 -20 0 -18 -4 -24 -12 -19 -10 6 -10 5 -1
-8 13 -15 5 -16 -49 -9 -5 1 -8 6 -8 12 0 5 4 8 8 5 5 -3 9 1 9 8 0 7 -6 13
-13 13 -7 0 -11 -4 -8 -9 11 -17 -12 -7 -26 11 -7 11 -17 18 -22 15 -4 -3 -8
2 -8 11 0 9 4 14 8 11 5 -3 9 1 9 9 0 8 -4 12 -9 9 -4 -3 -8 2 -8 11 0 10 -5
13 -12 9 -9 -6 -9 -3 0 9 12 14 11 16 -5 13 -14 -3 -19 2 -20 22 -2 24 -1 25
7 7 8 -18 9 -18 9 -2 1 12 5 16 14 11 9 -6 9 -4 -1 8 -11 14 -9 15 18 13 27
-2 29 -1 18 13 -10 12 -10 14 0 8 7 -4 12 -1 12 9 0 9 -4 14 -8 11 -5 -3 -9 1
-9 9 0 18 20 15 30 -5 5 -10 6 -8 3 7 -2 12 2 27 10 34 8 6 15 23 15 38 1 17
3 20 6 8 2 -9 9 -15 14 -11 5 3 7 9 5 13 -3 4 1 8 9 8 8 0 15 -7 15 -14 0 -8
5 -11 10 -8 6 4 8 11 4 16 -3 5 0 8 8 7 7 -2 16 -10 20 -18 4 -10 7 -5 8 15 2
17 2 34 1 38 -1 5 3 6 9 2 6 -4 11 10 11 37 l2 43 7 -35 7 -35 2 32 c1 23 7
34 24 39 12 5 25 7 30 6 4 -1 7 2 7 6 0 5 6 9 13 10 23 1 56 11 76 22 16 8 21
8 21 -1 0 -7 9 -2 20 11 11 13 26 20 35 16 8 -3 15 0 15 6 0 6 3 9 6 5 4 -3
13 1 21 9 8 8 19 12 24 9 5 -4 9 6 9 20 0 15 -4 24 -10 20 -5 -3 -10 1 -10 10
0 9 -4 14 -9 10 -5 -3 -17 2 -25 11 -9 8 -16 13 -16 9 0 -8 -64 26 -72 39 -5
7 -8 7 -8 -3 0 -10 -3 -11 -13 -3 -7 6 -27 12 -44 14 -18 1 -31 6 -30 11 5 22
-88 26 -129 5 -29 -14 -35 -14 -70 3 -22 10 -45 18 -51 19 -7 0 -13 6 -14 13
0 10 -2 10 -6 0 -6 -16 -33 -17 -33 -2 0 5 5 7 10 4 6 -4 10 15 10 50 0 42 3
54 13 49 7 -5 6 0 -3 11 -9 11 -10 16 -2 11 8 -5 12 1 12 19 0 15 4 24 10 20
6 -3 10 1 10 10 0 9 5 13 10 10 6 -4 8 -10 6 -14 -3 -4 1 -8 8 -8 7 0 13 6 13
13 0 7 -5 10 -11 7 -6 -4 -5 0 2 9 7 9 22 15 32 13 11 -2 19 1 17 8 -1 6 4 12
11 13 6 1 17 2 22 3 6 0 10 8 10 17 0 27 25 9 29 -22 3 -26 4 -27 11 -9 7 17
9 16 10 -10 2 -16 2 -34 1 -38 -1 -5 3 -6 8 -3 5 4 15 1 23 -6 24 -23 38 -19
39 10 l1 27 8 -30 8 -30 2 30 c1 26 3 27 10 10 6 -14 9 -15 9 -4 1 8 -5 21
-11 28 -10 11 -10 13 0 7 7 -5 12 -1 12 9 0 9 5 13 10 10 6 -3 10 5 10 19 0
14 5 28 10 31 6 4 11 68 11 153 1 81 5 129 8 108 6 -37 7 -38 21 -21 9 11 10
16 3 11 -8 -4 -13 -1 -13 9 0 9 5 13 10 10 6 -4 10 -3 9 2 -1 4 -1 22 1 38 1
26 3 27 10 10 8 -18 9 -18 9 -2 1 10 6 15 11 12 6 -3 10 0 10 8 0 7 7 14 15
14 8 0 15 -7 15 -14 0 -8 -4 -11 -10 -8 -5 3 -10 -1 -10 -11 0 -29 30 5 31 35
0 23 1 24 9 6 7 -17 9 -17 9 -2 1 20 23 18 33 -3 5 -12 7 -11 7 3 1 10 6 15
11 12 6 -3 10 0 10 8 0 19 30 17 31 -2 0 -13 2 -12 8 2 4 10 11 18 16 18 5 0
12 -8 16 -18 4 -11 7 -3 7 22 0 22 -3 33 -7 25 -12 -29 -31 -21 -31 13 0 23 5
34 15 34 11 0 12 -4 4 -13 -6 -7 -9 -19 -6 -26 3 -8 6 -6 6 5 1 10 6 15 11 12
6 -3 10 0 10 8 0 10 15 13 60 12 43 -1 57 2 50 10 -7 8 -5 12 5 12 8 0 15 -6
15 -12 0 -6 7 -12 15 -12 10 0 12 4 5 12 -8 10 -3 12 19 10 29 -2 34 7 17 34
-6 10 -5 12 2 7 7 -4 12 -1 12 9 0 9 4 14 8 11 5 -3 9 1 9 9 0 8 -4 12 -8 10
-7 -5 -20 26 -23 60 -2 17 3 21 30 21 18 0 32 -3 32 -6z m-2521 -22 c-3 -8 -6
-5 -6 6 -1 11 2 17 5 13 3 -3 4 -12 1 -19z m40 0 c-3 -8 -6 -5 -6 6 -1 11 2
17 5 13 3 -3 4 -12 1 -19z m1166 -23 c-7 -21 -12 -19 -10 4 0 11 5 18 9 15 4
-3 5 -11 1 -19z m1091 -6 c-8 -13 -64 -41 -75 -37 -5 2 5 18 22 36 25 26 34
31 45 21 7 -6 11 -15 8 -20z m-564 -169 c3 44 3 45 9 10 l5 -35 6 45 7 45 3
-60 c2 -50 4 -55 10 -30 6 25 8 20 8 -25 0 -42 -2 -49 -8 -30 -6 19 -8 12 -8
-30 0 -42 2 -49 8 -30 8 24 8 23 9 -8 1 -19 5 -31 11 -27 6 4 10 -8 10 -30 0
-22 4 -34 10 -30 6 3 10 -2 11 -12 0 -16 1 -16 9 2 6 15 9 8 9 -28 1 -30 -3
-46 -9 -42 -6 3 -10 -4 -10 -17 0 -18 -2 -20 -10 -8 -7 11 -10 7 -10 -17 0
-30 -8 -39 -34 -34 -5 1 -3 -6 5 -15 13 -16 12 -16 -11 -4 -29 15 -73 20 -80
9 -3 -5 -11 1 -19 12 -7 12 -8 18 -3 15 6 -3 5 5 -1 19 -7 14 -15 25 -19 25
-13 0 -9 30 5 31 10 0 10 2 0 6 -7 2 -13 9 -13 14 0 6 5 7 10 4 6 -3 10 1 10
10 0 9 5 13 10 10 6 -4 10 11 10 37 0 31 3 39 10 28 7 -10 10 11 10 70 0 59 3
80 10 70 8 -13 10 -12 10 3 0 9 -4 17 -10 17 -5 0 -10 8 -10 18 0 14 2 15 10
2 7 -10 10 18 12 90 l2 105 6 -115 c3 -64 8 -95 10 -70z m29 123 c-1 -36 -4
-47 -7 -28 -4 26 -5 28 -12 10 -7 -15 -9 -10 -9 20 0 31 2 36 9 20 8 -18 9
-17 9 8 1 15 3 27 6 27 3 0 4 -26 4 -57z m-519 31 c0 -8 -19 -13 -24 -6 -3 5
1 9 9 9 8 0 15 -2 15 -3z m1309 -17 c8 -10 7 -14 -2 -14 -8 0 -14 6 -14 14 0
7 1 13 2 13 2 0 8 -6 14 -13z m2385 5 c3 -5 -1 -9 -9 -9 -8 0 -12 4 -9 9 3 4
7 8 9 8 2 0 6 -4 9 -8z m-2817 -64 c-3 -7 -5 -2 -5 12 0 14 2 19 5 13 2 -7 2
-19 0 -25z m2970 5 c2 -5 -5 -21 -16 -34 -16 -19 -20 -21 -21 -7 0 9 5 20 10
23 8 5 8 11 0 20 -9 10 -7 13 6 11 10 -2 19 -7 21 -13z m-2930 -15 c-3 -8 -6
-5 -6 6 -1 11 2 17 5 13 3 -3 4 -12 1 -19z m303 16 c0 -8 -19 -13 -24 -6 -3 5
1 9 9 9 8 0 15 -2 15 -3z m2416 -6 c4 -7 3 -8 -4 -4 -7 4 -12 1 -12 -9 0 -10
5 -13 13 -9 9 6 9 4 -1 -8 -11 -14 -11 -16 1 -14 8 1 22 8 32 16 9 7 15 9 14
4 -4 -23 3 -26 22 -8 11 10 20 14 19 9 -5 -24 1 -27 21 -9 13 11 19 13 17 5
-2 -7 5 -15 15 -16 15 -3 16 -1 6 11 -10 12 -10 15 2 12 8 -2 13 2 12 8 -1 6
5 11 12 11 12 0 12 -3 2 -15 -6 -8 -11 -23 -9 -32 2 -15 -7 -16 -79 -14 -100
3 -129 10 -129 30 0 8 4 13 9 10 5 -3 11 3 14 14 6 23 13 25 23 8z m-3139 -20
c-3 -8 -6 -5 -6 6 -1 11 2 17 5 13 3 -3 4 -12 1 -19z m460 -20 c-3 -7 -5 -2
-5 12 0 14 2 19 5 13 2 -7 2 -19 0 -25z m20 -10 c-3 -7 -5 -2 -5 12 0 14 2 19
5 13 2 -7 2 -19 0 -25z m-3516 -5 c5 -13 3 -28 -5 -38 -10 -14 -16 -15 -37 -5
-14 6 -26 18 -26 26 0 8 3 12 5 9 3 -3 12 4 20 16 16 24 32 21 43 -8z m-107
-18 c-4 -8 -8 -15 -10 -15 -2 0 -4 7 -4 15 0 8 4 15 10 15 5 0 7 -7 4 -15z
m151 6 c3 -5 2 -12 -3 -15 -5 -3 -9 1 -9 9 0 17 3 19 12 6z m4025 -91 c10 -6
17 -87 9 -95 -10 -9 -46 29 -46 50 -1 11 4 38 11 60 9 35 11 37 15 15 1 -14 7
-27 11 -30z m-4116 -6 c4 -9 4 -19 2 -22 -10 -9 -36 8 -36 23 0 20 26 19 34
-1z m56 -19 c10 -13 11 -18 1 -28 -10 -9 -15 -8 -26 7 -23 31 1 50 25 21z
m7025 -49 c0 -10 -8 -24 -18 -30 -24 -15 -53 19 -35 41 16 20 53 12 53 -11z
m-4486 -153 c0 10 5 16 10 12 5 -3 12 3 14 12 3 11 5 6 7 -12 1 -26 3 -27 10
-10 5 11 9 16 10 10 1 -5 5 -1 10 10 7 17 9 16 10 -10 1 -26 3 -27 10 -10 5
11 9 16 10 10 1 -5 5 -1 10 10 7 17 9 16 10 -10 1 -26 3 -27 10 -10 5 11 9 16
10 10 1 -5 5 -1 10 10 6 15 9 8 10 -30 1 -38 4 -45 10 -30 5 11 9 16 9 10 1
-5 6 -3 11 5 7 11 10 -4 11 -50 0 -46 3 -59 9 -45 6 15 9 8 9 -28 1 -30 -3
-46 -9 -42 -5 3 -10 -1 -10 -10 0 -9 4 -14 9 -10 5 3 11 0 14 -7 2 -7 3 -5 2
4 -2 10 1 21 6 24 5 3 9 -11 9 -31 0 -22 -4 -34 -10 -30 -5 3 -10 -1 -10 -10
0 -9 -4 -13 -10 -10 -9 5 -16 -33 -11 -59 1 -6 3 -28 3 -50 1 -23 3 -33 6 -23
2 9 8 15 13 12 5 -4 9 1 9 10 0 9 -4 14 -8 11 -5 -3 -9 1 -9 8 0 7 6 13 12 13
7 0 12 -19 13 -46 1 -34 -1 -41 -8 -26 -7 17 -9 14 -10 -15 -2 -32 -3 -33 -10
-10 -8 25 -8 25 -10 -5 -1 -26 -3 -27 -10 -10 -8 18 -9 18 -9 2 -1 -10 -5 -15
-11 -12 -5 3 -10 -1 -10 -9 0 -9 -7 -13 -20 -11 -11 2 -19 -1 -17 -8 1 -7 -4
-11 -12 -9 -12 3 -12 1 0 -14 9 -12 9 -15 2 -10 -8 4 -13 1 -13 -9 0 -9 -4
-13 -10 -10 -5 3 -10 -1 -10 -10 0 -9 4 -14 8 -11 5 3 9 -1 9 -9 0 -8 -8 -12
-20 -10 -16 4 -17 2 -5 -12 9 -12 9 -15 1 -9 -8 4 -13 1 -13 -9 0 -9 -4 -13
-10 -10 -9 6 -15 -30 -10 -64 1 -11 -2 -11 -14 2 -18 17 -21 32 -6 22 6 -3 10
1 10 10 0 9 -4 13 -10 10 -6 -4 -10 15 -10 50 0 40 3 54 12 49 7 -5 8 -3 2 7
-12 20 -14 40 -3 33 5 -3 9 2 9 11 0 9 4 14 9 11 5 -3 8 -14 6 -24 -1 -9 0
-11 2 -4 3 7 8 10 13 7 10 -6 8 15 -4 34 -6 10 -5 12 2 7 7 -4 12 -1 12 9 0 9
5 13 10 10 6 -3 10 1 10 10 0 9 5 13 10 10 6 -3 10 1 10 10 0 9 -4 14 -8 11
-5 -3 -9 1 -9 9 0 8 3 12 7 10 4 -2 7 2 7 10 0 8 -4 12 -9 9 -4 -3 -8 2 -8 11
0 9 5 13 10 10 6 -3 10 1 10 10 0 9 -4 14 -9 10 -5 -3 -11 0 -14 7 -2 7 -3 5
-2 -4 2 -10 -1 -21 -6 -24 -5 -3 -9 2 -9 11 0 10 -5 13 -12 9 -7 -5 -8 -3 -2
7 12 20 14 40 3 33 -5 -3 -10 3 -10 13 -1 10 -5 5 -9 -12 -4 -16 -8 -22 -9
-12 0 10 -5 15 -11 12 -5 -3 -11 2 -11 12 -1 10 -5 5 -9 -12 -4 -16 -8 -22 -9
-12 0 10 -5 15 -11 12 -5 -3 -11 2 -11 12 -1 10 -5 5 -9 -12 -4 -16 -8 -22 -9
-12 0 10 -5 15 -11 12 -5 -3 -10 1 -10 10 0 9 4 14 8 11 5 -3 9 1 9 9 0 8 -4
12 -9 9 -4 -3 -8 2 -8 11 0 9 4 14 8 11 5 -3 9 1 9 9 0 8 -4 12 -9 9 -4 -3 -8
2 -8 11 0 9 4 14 8 11 5 -3 9 1 9 9 0 8 -4 12 -9 9 -4 -3 -8 2 -8 11 0 9 4 14
8 11 5 -3 9 1 9 9 0 8 -4 12 -9 9 -4 -3 -8 2 -8 11 0 9 4 14 8 11 5 -3 9 1 9
9 0 8 -4 12 -9 9 -4 -3 -8 2 -8 11 0 9 5 13 10 10 6 -3 10 1 10 9 0 10 7 13
21 11 18 -4 19 -2 7 12 -9 12 -9 15 0 9 9 -5 12 3 13 31 1 38 1 38 9 8 4 -16
8 -22 9 -12z m608 -15 c-2 -13 -4 -5 -4 17 -1 22 1 32 4 23 2 -10 2 -28 0 -40z
m20 -10 c-2 -13 -4 -3 -4 22 0 25 2 35 4 23 2 -13 2 -33 0 -45z m40 -5 c-3
-10 -5 -2 -5 17 0 19 2 27 5 18 2 -10 2 -26 0 -35z m884 -65 c1 -29 3 -35 7
-18 4 23 5 23 12 5 8 -24 1 -57 -11 -49 -5 3 -9 -1 -9 -9 0 -16 -31 -29 -67
-29 -38 -1 -43 1 -43 16 0 8 -5 16 -11 18 -6 2 -9 17 -7 33 3 25 5 27 18 14 8
-8 30 -15 48 -16 27 0 32 3 32 24 0 13 -4 22 -9 18 -15 -9 -58 41 -57 66 1 16
9 25 26 29 34 8 69 -42 71 -102z m-1604 70 c-3 -8 -6 -5 -6 6 -1 11 2 17 5 13
3 -3 4 -12 1 -19z m700 -10 c-3 -7 -5 -2 -5 12 0 14 2 19 5 13 2 -7 2 -19 0
-25z m40 10 c-3 -8 -6 -5 -6 6 -1 11 2 17 5 13 3 -3 4 -12 1 -19z m20 -25 c-3
-10 -5 -2 -5 17 0 19 2 27 5 18 2 -10 2 -26 0 -35z m-800 -15 c-3 -8 -6 -5 -6
6 -1 11 2 17 5 13 3 -3 4 -12 1 -19z m780 0 c-3 -8 -6 -5 -6 6 -1 11 2 17 5
13 3 -3 4 -12 1 -19z m-780 -40 c-3 -8 -6 -5 -6 6 -1 11 2 17 5 13 3 -3 4 -12
1 -19z m763 -6 c0 -11 -11 -24 -25 -30 -22 -10 -25 -9 -25 9 0 11 4 18 9 14 6
-3 16 1 23 9 17 20 18 19 18 -2z m-763 -34 c-3 -8 -6 -5 -6 6 -1 11 2 17 5 13
3 -3 4 -12 1 -19z m0 -40 c-3 -8 -6 -5 -6 6 -1 11 2 17 5 13 3 -3 4 -12 1 -19z
m0 -40 c-3 -8 -6 -5 -6 6 -1 11 2 17 5 13 3 -3 4 -12 1 -19z m0 -40 c-3 -8 -6
-5 -6 6 -1 11 2 17 5 13 3 -3 4 -12 1 -19z m-1175 -93 c4 -5 8 -16 8 -24 0
-11 -31 -12 -182 -7 -211 8 -258 13 -258 30 0 15 421 16 432 1z m1335 -27 c-3
-8 -6 -5 -6 6 -1 11 2 17 5 13 3 -3 4 -12 1 -19z m280 -30 c-3 -7 -5 -2 -5 12
0 14 2 19 5 13 2 -7 2 -19 0 -25z m-1737 -12 c0 -7 3 -7 8 -1 4 6 30 11 58 12
l52 1 3 -51 c4 -50 -5 -233 -10 -212 -1 6 -6 1 -11 -10 -8 -18 -9 -17 -9 8 -1
16 -5 26 -9 23 -5 -3 -9 1 -9 9 0 8 8 12 21 10 20 -4 20 -3 -2 15 -13 10 -29
17 -36 14 -8 -3 -17 0 -21 5 -3 6 -10 9 -14 7 -4 -3 -8 1 -8 9 0 8 4 15 9 15
10 0 8 119 -2 125 -4 2 -6 -16 -6 -41 1 -34 -4 -48 -16 -55 -11 -6 -19 -5 -23
1 -5 8 -11 8 -20 0 -10 -8 -15 -8 -20 0 -4 7 -16 10 -26 7 -24 -7 -33 8 -35
59 -2 41 6 48 32 31 6 -3 14 -3 18 0 4 4 14 8 24 9 9 2 18 7 20 12 4 12 32 11
32 -2z m4280 -7 c0 -5 -6 -7 -12 -3 -8 5 -8 2 1 -10 12 -15 12 -17 0 -14 -8 2
-13 -2 -12 -7 1 -6 -7 -12 -18 -12 -22 -2 -26 26 -7 45 15 15 48 16 48 1z
m-4427 -44 c-1 -25 -5 -50 -8 -55 -12 -20 -35 11 -35 47 0 26 5 36 23 43 12 5
22 9 22 9 0 1 -1 -19 -2 -44z m4048 -21 c6 -7 4 -25 -6 -48 -12 -28 -21 -36
-40 -36 -24 0 -25 2 -25 66 l0 65 31 -18 c17 -10 35 -23 40 -29z m479 -83 c0
-55 -4 -102 -8 -105 -4 -2 -14 32 -21 77 -7 45 -15 84 -17 87 -9 9 -23 -24
-29 -73 -8 -56 -16 -54 -31 11 l-10 47 -14 -42 c-7 -24 -17 -43 -21 -43 -4 0
-12 15 -19 33 -7 17 -14 26 -17 20 -10 -27 -23 -11 -23 27 0 31 4 40 18 40 50
2 125 10 130 15 3 3 18 5 34 5 l28 0 0 -99z m333 10 c4 -4 -1 -16 -11 -27 -10
-10 -25 -29 -34 -42 l-15 -23 -36 50 c-29 40 -33 50 -20 53 25 5 107 -3 116
-11z m-1200 -41 l28 0 -5 -77 c-2 -43 -5 -102 -5 -131 -1 -34 -5 -51 -11 -47
-6 4 -10 14 -9 23 3 36 -2 48 -32 65 -78 44 -159 1 -159 -84 0 -11 -4 -19 -10
-19 -5 0 -10 -4 -10 -10 0 -5 6 -9 13 -7 7 1 12 -9 12 -28 0 -23 -7 -33 -28
-43 -55 -26 -57 -18 -51 150 3 84 7 168 10 187 l5 33 112 -5 c62 -4 125 -6
140 -7z m1562 0 c4 -6 10 -8 14 -6 4 3 8 -1 8 -9 0 -8 -3 -12 -7 -10 -3 2 -6
-7 -6 -19 0 -30 38 -26 42 5 1 5 2 12 3 16 0 3 10 -2 21 -12 11 -10 18 -21 15
-25 -2 -4 2 -7 8 -7 8 0 13 12 12 29 0 15 2 28 5 27 3 0 17 4 31 10 36 13 42
4 16 -26 -12 -13 -27 -40 -34 -59 -10 -30 -10 -35 6 -44 10 -5 21 -6 25 -3 3
3 6 2 6 -4 0 -6 -17 -23 -37 -39 -21 -15 -51 -43 -67 -61 -31 -36 -64 -44 -63
-15 3 56 -17 182 -34 215 -10 21 -19 40 -19 42 0 10 49 5 55 -5z m-581 -65
c12 -22 16 -25 16 -11 0 34 26 -1 45 -60 19 -61 15 -76 -13 -51 -10 10 -22 14
-25 10 -4 -3 -7 -1 -7 6 0 7 -4 9 -10 6 -6 -4 -10 15 -10 49 0 31 -4 56 -10
56 -5 0 -10 8 -10 17 0 20 4 16 24 -22z m281 -22 c-12 -27 -26 -67 -30 -90
-12 -74 -28 -63 -20 13 10 92 15 101 72 123 0 1 -9 -20 -22 -46z m-3044 2 c7
17 8 16 8 -8 1 -16 -3 -26 -9 -22 -5 3 -10 -1 -10 -11 0 -24 27 0 33 29 3 15
5 11 6 -11 0 -20 -3 -31 -9 -27 -5 3 -10 0 -10 -8 0 -7 -6 -14 -13 -14 -9 0
-13 15 -14 46 0 25 2 37 5 26 l5 -20 8 20z m3589 -25 c0 -20 -5 -30 -15 -30
-18 0 -20 31 -3 48 17 17 18 16 18 -18z m-3623 -2 c-3 -8 -6 -5 -6 6 -1 11 2
17 5 13 3 -3 4 -12 1 -19z m83 -14 c0 -21 -4 -33 -10 -29 -5 3 -10 -1 -10 -10
0 -9 5 -13 10 -10 6 3 10 0 10 -8 0 -7 -6 -14 -13 -14 -15 0 -21 43 -7 52 6 3
10 17 10 31 0 13 2 24 5 24 3 0 5 -16 5 -36z m-1800 20 c0 -8 -19 -13 -24 -6
-3 5 1 9 9 9 8 0 15 -2 15 -3z m40 -4 c0 -5 -5 -10 -11 -10 -5 0 -7 5 -4 10 3
6 8 10 11 10 2 0 4 -4 4 -10z m4355 -7 c-2 -10 -4 -26 -4 -35 -1 -10 -5 -18
-11 -18 -13 0 -13 12 0 44 11 30 20 35 15 9z m315 -55 c0 -62 -5 -60 -13 5 -4
28 -3 47 3 47 6 0 10 -23 10 -52z m-4790 7 c0 -20 -26 -65 -33 -58 -9 8 -9 68
-1 76 9 9 34 -4 34 -18z m121 16 c9 -1 19 -10 22 -22 7 -26 -9 -72 -22 -64 -5
3 -12 1 -16 -5 -11 -17 -25 0 -25 30 0 17 -7 33 -17 39 -15 9 -16 12 -4 20 7
5 21 7 30 6 9 -2 23 -4 32 -4z m1716 -43 c-3 -8 -6 -5 -6 6 -1 11 2 17 5 13 3
-3 4 -12 1 -19z m0 -40 c-3 -8 -6 -5 -6 6 -1 11 2 17 5 13 3 -3 4 -12 1 -19z
m83 7 c0 -6 -6 -12 -13 -12 -8 0 -14 6 -14 12 0 6 6 12 14 12 7 0 13 -6 13
-12z m2957 -52 c-3 -10 -5 -4 -5 12 0 17 2 24 5 18 2 -7 2 -21 0 -30z m-4667
-13 c13 -8 13 -11 -2 -26 -19 -19 -38 -11 -38 17 0 21 16 24 40 9z m3420 -55
c0 -34 -14 -54 -25 -35 -9 14 6 81 16 74 5 -3 9 -20 9 -39z m-3458 -72 c8 -16
7 -26 -6 -44 -11 -16 -16 -19 -16 -8 0 8 5 20 11 26 8 8 8 13 0 17 -6 4 -10
24 -10 44 1 26 3 30 6 12 2 -14 9 -35 15 -47z m-1335 -5 c-2 -13 -4 -5 -4 17
-1 22 1 32 4 23 2 -10 2 -28 0 -40z m20 10 c-3 -8 -6 -5 -6 6 -1 11 2 17 5 13
3 -3 4 -12 1 -19z m1294 -72 c5 -6 9 -18 9 -28 0 -10 5 -18 11 -18 6 0 3 -7
-5 -16 -23 -23 -20 -41 9 -48 14 -4 25 -11 25 -16 0 -6 -14 -3 -30 5 -37 19
-53 55 -44 100 3 19 2 41 -4 51 -7 12 -6 21 2 30 8 9 12 5 14 -20 2 -17 8 -35
13 -40z m2346 0 c-1 -6 4 -10 11 -8 6 1 12 -5 12 -14 0 -8 -4 -12 -10 -9 -5 3
-10 -1 -10 -10 0 -9 5 -13 10 -10 6 4 10 -8 10 -30 0 -20 4 -34 8 -31 5 3 7
18 6 34 -1 19 3 29 12 29 8 0 14 -7 14 -14 0 -8 -4 -11 -10 -8 -5 3 -10 -1
-10 -10 0 -9 5 -13 10 -10 6 3 10 -1 10 -10 0 -9 -4 -13 -10 -10 -5 3 -10 -1
-10 -10 0 -9 -4 -14 -8 -11 -5 3 -9 -1 -9 -8 0 -7 6 -13 13 -13 7 0 11 4 8 8
-2 4 0 10 6 14 14 9 12 -18 -2 -34 -10 -11 -10 -13 0 -7 7 5 12 1 12 -9 0 -10
-5 -13 -12 -9 -7 5 -8 3 -2 -7 14 -22 13 -36 -2 -36 -9 0 -11 4 -4 12 7 8 5
12 -5 12 -7 0 -14 -3 -13 -6 3 -33 -4 -101 -10 -97 -5 3 -9 -1 -9 -9 0 -8 4
-12 9 -9 4 3 8 -2 8 -11 0 -9 -4 -13 -10 -10 -5 3 -10 -1 -10 -10 0 -9 -4 -13
-10 -10 -5 3 -10 -1 -10 -10 0 -9 5 -13 10 -10 6 3 10 -1 10 -10 0 -9 -4 -13
-10 -10 -6 4 -10 -15 -10 -50 0 -35 -4 -54 -10 -50 -5 3 -10 -1 -10 -10 0 -9
5 -13 10 -10 6 3 10 -1 10 -10 0 -9 -4 -14 -9 -10 -5 3 -11 0 -14 -7 -2 -7 -3
-5 -2 4 2 10 -1 21 -6 24 -5 3 -9 -11 -9 -31 0 -22 -4 -34 -10 -30 -5 3 -10
-1 -10 -10 0 -9 -4 -13 -10 -10 -5 3 -10 0 -10 -8 0 -7 -7 -14 -15 -14 -10 0
-12 4 -5 12 7 8 5 12 -5 12 -7 0 -14 -3 -13 -6 3 -29 -4 -61 -12 -56 -5 3 -10
-1 -10 -10 0 -9 -4 -13 -10 -10 -5 3 -10 -1 -10 -9 0 -9 -7 -13 -20 -11 -18 4
-26 -10 -21 -38 1 -5 -3 -6 -9 -2 -6 3 -8 10 -6 14 3 4 -1 8 -9 8 -8 0 -13 -5
-12 -11 1 -6 -8 -10 -21 -10 -19 1 -20 -1 -10 -14 10 -12 10 -14 1 -8 -8 4
-13 2 -13 -7 0 -7 -7 -14 -15 -14 -10 0 -12 4 -5 12 7 8 5 12 -5 12 -8 0 -15
-6 -15 -14 0 -7 -6 -12 -12 -11 -7 2 -12 -3 -11 -9 2 -7 -3 -12 -10 -10 -6 1
-11 -4 -9 -12 3 -12 1 -12 -14 -1 -22 19 -64 21 -64 3 0 -7 -6 -12 -12 -10 -7
1 -12 -4 -10 -11 1 -8 -2 -11 -8 -7 -5 3 -10 0 -10 -8 0 -7 -7 -14 -15 -14
-13 0 -13 3 1 18 10 11 12 19 4 24 -5 3 -8 10 -6 14 3 4 -1 8 -8 8 -7 0 -13
-6 -13 -13 0 -7 3 -12 6 -11 3 1 6 -2 6 -8 0 -5 -3 -9 -7 -8 -5 2 -8 -4 -8
-13 0 -8 -5 -12 -10 -9 -6 4 -8 10 -6 14 3 4 -1 8 -8 8 -7 0 -13 -6 -13 -13 0
-7 4 -11 8 -9 11 8 28 -19 26 -42 -1 -14 -7 -20 -19 -18 -11 2 -18 -2 -18 -11
0 -8 4 -13 8 -10 5 3 9 -1 9 -9 0 -8 -5 -13 -11 -12 -6 1 -10 -4 -9 -10 2 -7
0 -12 -5 -10 -4 1 -7 -3 -7 -8 0 -6 3 -9 7 -8 5 2 8 -3 8 -10 0 -8 -6 -14 -14
-14 -8 0 -14 3 -13 6 1 3 -3 7 -8 8 -6 1 -9 -6 -7 -15 3 -14 1 -13 -11 3 -9
11 -12 24 -9 30 11 18 10 32 -3 32 -7 0 -12 -7 -12 -16 0 -53 -3 -57 -17 -31
-8 16 -9 29 -3 37 6 9 3 11 -13 8 -18 -3 -20 -2 -10 10 10 12 8 13 -10 10 -17
-3 -19 -1 -11 9 8 9 7 13 -4 13 -8 0 -15 -9 -15 -20 0 -16 -7 -12 -35 19 -31
34 -49 74 -27 60 5 -3 9 1 9 9 0 8 -4 12 -9 9 -4 -3 -8 7 -8 21 0 15 -4 24
-10 20 -6 -4 -10 -3 -9 2 1 4 1 21 0 36 -1 20 -5 26 -13 21 -8 -5 -7 0 2 11 9
11 10 16 3 11 -8 -4 -13 -1 -13 9 0 9 4 14 8 11 5 -3 9 1 9 9 0 8 -3 12 -7 10
-4 -2 -7 2 -7 10 0 8 3 12 7 10 4 -2 7 2 7 10 0 8 -4 12 -9 9 -4 -3 -8 2 -8
11 0 9 4 14 8 11 5 -3 9 1 9 9 0 7 -8 12 -18 10 -11 -2 -18 2 -16 8 1 7 -3 11
-9 10 -6 -1 -11 4 -11 11 0 7 6 13 14 13 7 0 13 -6 13 -12 0 -6 6 -12 13 -12
8 0 14 6 14 13 0 7 -5 12 -11 11 -6 -1 -10 3 -9 10 2 7 -6 10 -18 8 -16 -3
-18 -1 -10 9 8 9 7 13 -4 13 -8 0 -15 -7 -16 -16 0 -11 -2 -12 -6 -3 -3 7 0
19 7 27 10 12 8 14 -7 10 -12 -2 -20 2 -20 10 0 8 4 12 9 9 4 -3 8 2 8 11 0 9
-4 14 -8 11 -5 -3 -9 1 -9 9 0 8 4 12 9 9 4 -3 8 2 8 11 0 10 -5 13 -12 9 -8
-5 -7 0 2 11 9 11 10 16 3 11 -8 -4 -13 -1 -13 9 0 9 4 14 8 11 5 -3 9 1 9 9
0 8 -8 12 -20 10 -15 -4 -17 -2 -7 10 7 8 16 13 19 10 4 -2 8 2 8 10 0 8 -4
13 -8 12 -4 -1 -7 3 -7 8 0 6 3 9 7 8 4 -1 8 4 8 12 0 8 -4 13 -8 12 -4 -1 -7
3 -7 8 0 6 3 9 7 8 4 -1 8 4 8 12 0 8 -4 13 -8 12 -4 -1 -7 3 -7 8 0 6 3 9 7
8 4 -1 8 4 8 11 0 7 -6 13 -13 13 -7 0 -11 -4 -8 -8 2 -4 -1 -11 -7 -14 -7 -5
-9 1 -7 16 2 13 -2 23 -8 22 -6 -1 -11 4 -11 11 0 7 6 13 14 13 7 0 13 -6 13
-12 0 -6 7 -12 15 -12 11 0 12 4 5 11 -15 15 -12 33 4 33 8 0 15 -3 14 -6 0
-3 1 -19 2 -36 1 -18 4 -23 7 -12 3 10 9 14 16 10 8 -5 8 -2 0 8 -10 13 -10
16 2 16 8 0 15 -7 15 -14 0 -8 5 -11 10 -8 6 4 8 10 6 14 -3 4 1 8 9 8 8 0 15
-7 15 -14 0 -8 -4 -11 -10 -8 -5 3 -10 0 -10 -8 0 -9 10 -13 28 -12 15 0 25 5
22 11 -3 5 -8 8 -11 7 -3 -1 -6 4 -6 11 0 7 6 13 13 13 7 0 12 -5 11 -11 -1
-6 4 -10 11 -8 6 1 11 -4 10 -10 -2 -7 3 -12 10 -10 6 1 12 -4 12 -11 0 -8 7
-14 15 -14 8 0 11 5 7 11 -11 19 -9 53 4 53 12 0 13 -14 2 -33 -4 -6 -1 -11 7
-11 8 0 13 5 12 11 -1 6 12 11 30 10 23 0 30 3 23 11 -6 7 1 11 26 11 18 0 34
-5 34 -11 0 -7 7 -12 15 -12 10 0 12 4 5 12 -8 10 -3 12 20 10 17 -1 33 1 35
6 3 4 14 6 25 4 11 -2 22 0 25 5 3 4 -14 6 -38 4 -31 -2 -37 -1 -21 6 12 5 58
10 103 12 44 2 83 7 87 11 12 11 42 8 47 -5 4 -8 6 -7 6 3 1 9 8 22 16 29 12
10 15 9 15 -4 0 -10 -4 -14 -10 -11 -5 3 -10 0 -10 -8 0 -7 7 -14 15 -14 8 0
15 7 15 14 0 8 5 11 10 8 6 -4 8 -10 6 -14 -3 -4 1 -8 9 -8 8 0 13 5 12 11 -1
6 7 11 19 10 11 -1 21 5 21 12 0 7 -5 10 -11 7 -6 -4 -4 1 4 11 11 14 15 15
20 4 3 -7 14 -14 25 -14 11 0 19 -5 18 -10 -1 -6 4 -11 11 -11 7 0 13 6 13 13
0 7 -4 12 -8 11 -4 -1 -7 3 -7 8 0 6 4 9 10 7 5 -1 7 2 3 8 -5 8 -11 8 -19 1
-7 -6 -17 -7 -21 -3 -5 4 -5 0 0 -8 5 -8 4 -12 0 -7 -23 20 -12 34 26 32 30
-1 37 1 28 11 -7 9 -6 12 8 9 10 -1 17 -8 15 -15 -1 -6 2 -9 8 -5 5 3 11 -2
11 -12 1 -10 5 -4 8 12 8 34 1 58 -9 31 -5 -17 -7 -17 -20 -1 -11 14 -11 16 1
13 8 -2 13 2 12 8 -1 6 4 11 12 11 8 0 13 -5 12 -11z m-191 -104 c-15 -15 -16
-15 -16 1 0 10 5 15 10 12 6 -3 10 2 11 12 0 12 2 14 6 5 3 -8 -2 -21 -11 -30z
m-2212 -40 c3 -5 -1 -9 -9 -9 -8 0 -12 4 -9 9 3 4 7 8 9 8 2 0 6 -4 9 -8z
m1746 -28 c0 -8 -19 -13 -24 -6 -3 5 1 9 9 9 8 0 15 -2 15 -3z m-270 -83 c2
-1 -1 -6 -8 -13 -8 -8 -8 -15 -1 -24 7 -8 7 -14 -1 -19 -5 -3 -10 1 -10 10 0
9 -4 14 -8 11 -4 -2 -8 6 -8 18 0 16 5 23 16 21 8 -2 17 -4 20 -4z m1615 -49
c18 -12 18 -13 -10 -6 -39 9 -65 22 -65 34 0 10 42 -5 75 -28z m-1622 -37 c-4
-14 -30 -14 -30 0 0 7 7 12 16 10 9 -1 15 -6 14 -10z m954 -47 c-3 -8 -6 -5
-6 6 -1 11 2 17 5 13 3 -3 4 -12 1 -19z m-20 -60 c-3 -8 -6 -5 -6 6 -1 11 2
17 5 13 3 -3 4 -12 1 -19z m0 -40 c-3 -8 -6 -5 -6 6 -1 11 2 17 5 13 3 -3 4
-12 1 -19z m-423 -336 c3 -5 -1 -9 -9 -9 -8 0 -12 4 -9 9 3 4 7 8 9 8 2 0 6
-4 9 -8z"/>
<path d="M4846 6664 c-10 -26 -7 -34 14 -34 15 0 20 7 20 25 0 28 -24 34 -34
9z"/>
<path d="M5625 6674 c-21 -22 -21 -120 1 -128 41 -16 64 11 64 73 0 41 -3 49
-25 59 -19 9 -27 8 -40 -4z"/>
<path d="M5427 6678 c-9 -5 -17 -17 -17 -27 0 -13 7 -17 28 -15 15 1 33 2 40
3 20 2 10 33 -14 41 -11 5 -28 4 -37 -2z"/>
<path d="M1352 3924 c9 -9 21 -15 27 -13 6 2 -2 10 -17 17 -25 11 -25 11 -10
-4z"/>
<path d="M1815 3321 c-3 -5 -1 -12 5 -16 5 -3 10 1 10 9 0 18 -6 21 -15 7z"/>
<path d="M1831 3296 c-16 -19 -12 -113 4 -113 8 0 13 22 14 64 1 35 -1 63 -3
63 -2 0 -9 -6 -15 -14z"/>
<path d="M1008 3249 c-21 -12 -23 -48 -5 -71 16 -21 53 -32 62 -18 3 5 -2 10
-12 10 -38 0 -58 51 -31 78 15 15 9 15 -14 1z"/>
<path d="M1071 3244 c16 -19 13 -105 -4 -116 -7 -4 -22 -8 -35 -8 -13 0 -20
-4 -17 -10 10 -16 51 -11 68 8 20 22 23 112 5 130 -18 18 -33 15 -17 -4z"/>
<path d="M1132 3240 c-18 -29 -15 -50 10 -71 39 -35 88 -14 88 38 0 49 -73 73
-98 33z m76 -2 c16 -16 15 -39 -3 -62 -22 -29 -65 -7 -65 32 0 16 3 32 7 35
11 11 48 8 61 -5z"/>
<path d="M1530 3241 c-5 -11 -9 -39 -9 -63 l2 -43 6 40 c4 22 11 50 15 63 9
27 0 29 -14 3z"/>
<path d="M1395 3230 c-15 -17 -16 -24 -5 -50 7 -16 15 -30 19 -31 3 0 15 -2
26 -4 29 -5 58 20 58 51 0 26 -25 55 -47 53 -6 0 -1 -5 12 -11 41 -20 23 -78
-25 -78 -31 0 -42 43 -18 70 10 11 14 20 8 20 -5 0 -18 -9 -28 -20z"/>
<path d="M1576 3237 c-27 -20 -18 -77 16 -96 25 -15 29 -14 52 8 32 30 33 65
4 85 -27 19 -48 20 -72 3z m64 -12 c15 -9 12 -51 -5 -65 -33 -28 -77 18 -56
59 11 19 36 21 61 6z"/>
<path d="M1261 3210 c0 -20 4 -41 11 -48 14 -14 58 -16 58 -3 0 5 -8 7 -18 4
-23 -6 -39 13 -45 52 -4 29 -4 28 -6 -5z"/>
<path d="M1342 3178 c-3 -54 -15 -71 -44 -64 -23 5 -24 -10 -2 -18 41 -16 86
60 69 114 -11 34 -20 22 -23 -32z"/>
<path d="M1641 2692 c0 -18 -5 -31 -10 -27 -5 3 -12 2 -14 -3 -3 -4 23 -7 57
-7 l61 0 -4 35 -5 35 -7 -35 c-5 -29 -7 -31 -9 -10 l-2 25 -8 -25 c-7 -23 -8
-23 -10 10 l-3 35 -6 -33 c-3 -18 -10 -33 -16 -33 -5 0 -13 15 -16 33 l-6 33
-2 -33z"/>
<path d="M1581 2694 c0 -11 3 -14 6 -6 3 7 2 16 -1 19 -3 4 -6 -2 -5 -13z"/>
<path d="M1621 2694 c0 -11 3 -14 6 -6 3 7 2 16 -1 19 -3 4 -6 -2 -5 -13z"/>
<path d="M3161 3364 c0 -11 3 -14 6 -6 3 7 2 16 -1 19 -3 4 -6 -2 -5 -13z"/>
<path d="M3441 3364 c0 -11 3 -14 6 -6 3 7 2 16 -1 19 -3 4 -6 -2 -5 -13z"/>
<path d="M3040 3285 c0 -6 6 -12 13 -12 8 0 14 6 14 12 0 6 -6 12 -14 12 -7 0
-13 -6 -13 -12z"/>
<path d="M3040 3245 c0 -6 6 -12 13 -12 8 0 14 6 14 12 0 6 -6 12 -14 12 -7 0
-13 -6 -13 -12z"/>
<path d="M3040 3205 c0 -6 6 -12 13 -12 8 0 14 6 14 12 0 6 -6 12 -14 12 -7 0
-13 -6 -13 -12z"/>
<path d="M3320 3203 c0 -8 5 -11 10 -8 6 3 10 -1 10 -10 0 -9 -4 -13 -10 -10
-5 3 -10 -1 -10 -10 0 -9 5 -13 10 -10 6 3 10 -1 10 -10 0 -9 -4 -14 -8 -11
-5 3 -9 -1 -9 -8 0 -7 6 -13 12 -13 7 0 12 19 12 52 0 36 -4 52 -14 52 -7 0
-13 -7 -13 -14z"/>
<path d="M3120 3163 c0 -8 5 -11 10 -8 6 3 10 -1 10 -10 0 -9 -4 -13 -10 -10
-6 4 -10 -8 -10 -28 0 -23 5 -34 15 -34 12 0 12 3 2 16 -9 12 -9 13 1 7 7 -4
12 -1 12 9 0 10 -5 13 -12 9 -10 -6 -10 -5 -1 7 16 19 13 56 -4 56 -7 0 -13
-7 -13 -14z"/>
<path d="M3281 3164 c0 -11 3 -14 6 -6 3 7 2 16 -1 19 -3 4 -6 -2 -5 -13z"/>
<path d="M3160 3125 c0 -6 6 -12 13 -12 8 0 14 6 14 12 0 6 -6 12 -14 12 -7 0
-13 -6 -13 -12z"/>
<path d="M3481 3084 c0 -11 3 -14 6 -6 3 7 2 16 -1 19 -3 4 -6 -2 -5 -13z"/>
<path d="M3561 3084 c0 -11 3 -14 6 -6 3 7 2 16 -1 19 -3 4 -6 -2 -5 -13z"/>
<path d="M3581 3064 c0 -11 3 -14 6 -6 3 7 2 16 -1 19 -3 4 -6 -2 -5 -13z"/>
<path d="M3081 3044 c0 -11 3 -14 6 -6 3 7 2 16 -1 19 -3 4 -6 -2 -5 -13z"/>
<path d="M3481 3044 c0 -11 3 -14 6 -6 3 7 2 16 -1 19 -3 4 -6 -2 -5 -13z"/>
<path d="M3521 3044 c0 -11 3 -14 6 -6 3 7 2 16 -1 19 -3 4 -6 -2 -5 -13z"/>
<path d="M3661 3064 c0 -11 3 -14 6 -6 3 7 2 16 -1 19 -3 4 -6 -2 -5 -13z"/>
<path d="M3906 2681 c-3 -4 6 -7 19 -7 14 0 22 2 19 5 -8 8 -34 10 -38 2z"/>
<path d="M3727 2503 c-11 -10 -8 -35 2 -28 5 3 12 -3 14 -12 3 -10 4 -6 3 9
-2 30 -9 41 -19 31z"/>
<path d="M3721 2444 c0 -11 3 -14 6 -6 3 7 2 16 -1 19 -3 4 -6 -2 -5 -13z"/>
<path d="M3760 2445 c0 -6 6 -12 13 -12 8 0 14 6 14 12 0 6 -6 12 -14 12 -7 0
-13 -6 -13 -12z"/>
<path d="M3641 2404 c0 -11 3 -14 6 -6 3 7 2 16 -1 19 -3 4 -6 -2 -5 -13z"/>
<path d="M3681 2404 c0 -11 3 -14 6 -6 3 7 2 16 -1 19 -3 4 -6 -2 -5 -13z"/>
<path d="M3720 2405 c0 -6 6 -12 13 -12 8 0 14 6 14 12 0 6 -6 12 -14 12 -7 0
-13 -6 -13 -12z"/>
<path d="M3381 1864 c0 -11 3 -14 6 -6 3 7 2 16 -1 19 -3 4 -6 -2 -5 -13z"/>
<path d="M3401 1844 c0 -11 3 -14 6 -6 3 7 2 16 -1 19 -3 4 -6 -2 -5 -13z"/>
<path d="M3163 1822 c-30 -4 -32 -41 -3 -43 11 -1 26 -2 33 -3 17 -3 37 14 37
32 0 8 -3 12 -6 9 -4 -3 -14 -3 -23 1 -9 5 -26 6 -38 4z"/>
<path d="M3840 1684 c0 -8 5 -12 10 -9 6 4 8 11 5 16 -9 14 -15 11 -15 -7z"/>
<path d="M3800 1604 c0 -8 5 -12 10 -9 6 4 8 11 5 16 -9 14 -15 11 -15 -7z"/>
<path d="M3281 1404 c0 -11 3 -14 6 -6 3 7 2 16 -1 19 -3 4 -6 -2 -5 -13z"/>
<path d="M3261 1384 c0 -11 3 -14 6 -6 3 7 2 16 -1 19 -3 4 -6 -2 -5 -13z"/>
<path d="M3121 1244 c0 -11 3 -14 6 -6 3 7 2 16 -1 19 -3 4 -6 -2 -5 -13z"/>
<path d="M3181 2304 c0 -11 3 -14 6 -6 3 7 2 16 -1 19 -3 4 -6 -2 -5 -13z"/>
<path d="M3201 2284 c0 -11 3 -14 6 -6 3 7 2 16 -1 19 -3 4 -6 -2 -5 -13z"/>
<path d="M3121 2244 c0 -11 3 -14 6 -6 3 7 2 16 -1 19 -3 4 -6 -2 -5 -13z"/>
<path d="M2741 2144 c0 -11 3 -14 6 -6 3 7 2 16 -1 19 -3 4 -6 -2 -5 -13z"/>
<path d="M2781 2144 c0 -11 3 -14 6 -6 3 7 2 16 -1 19 -3 4 -6 -2 -5 -13z"/>
<path d="M2821 2144 c0 -11 3 -14 6 -6 3 7 2 16 -1 19 -3 4 -6 -2 -5 -13z"/>
<path d="M2801 2124 c0 -11 3 -14 6 -6 3 7 2 16 -1 19 -3 4 -6 -2 -5 -13z"/>
<path d="M2861 2104 c0 -11 3 -14 6 -6 3 7 2 16 -1 19 -3 4 -6 -2 -5 -13z"/>
<path d="M2641 2084 c0 -11 3 -14 6 -6 3 7 2 16 -1 19 -3 4 -6 -2 -5 -13z"/>
<path d="M2881 2004 c0 -11 3 -14 6 -6 3 7 2 16 -1 19 -3 4 -6 -2 -5 -13z"/>
<path d="M2681 1924 c0 -11 3 -14 6 -6 3 7 2 16 -1 19 -3 4 -6 -2 -5 -13z"/>
<path d="M2841 1924 c0 -11 3 -14 6 -6 3 7 2 16 -1 19 -3 4 -6 -2 -5 -13z"/>
<path d="M2881 1924 c0 -11 3 -14 6 -6 3 7 2 16 -1 19 -3 4 -6 -2 -5 -13z"/>
<path d="M2701 1904 c0 -11 3 -14 6 -6 3 7 2 16 -1 19 -3 4 -6 -2 -5 -13z"/>
<path d="M2843 1859 c1 -29 5 -46 13 -46 7 0 12 14 12 34 0 18 -4 31 -8 28 -5
-3 -10 3 -13 12 -2 10 -4 -3 -4 -28z"/>
<path d="M2801 1844 c0 -11 3 -14 6 -6 3 7 2 16 -1 19 -3 4 -6 -2 -5 -13z"/>
<path d="M2800 1805 c0 -6 6 -12 13 -12 8 0 14 6 14 12 0 6 -6 12 -14 12 -7 0
-13 -6 -13 -12z"/>
<path d="M4221 2064 c0 -11 3 -14 6 -6 3 7 2 16 -1 19 -3 4 -6 -2 -5 -13z"/>
<path d="M1374 1616 c5 -15 4 -17 -8 -7 -9 8 -16 8 -20 2 -13 -21 39 -34 56
-13 8 10 9 13 1 9 -7 -4 -17 0 -23 10 -11 17 -11 17 -6 -1z"/>
<path d="M4571 1266 c-8 -20 -8 -33 -2 -39 13 -13 24 13 19 45 -4 22 -5 22
-17 -6z"/>
<path d="M5804 1424 c0 -12 4 -20 8 -18 4 3 8 0 8 -5 0 -6 4 -11 10 -11 6 0 6
9 0 24 -5 13 -7 26 -4 28 2 3 -2 5 -9 5 -7 0 -13 -11 -13 -23z"/>
<path d="M3401 924 c0 -11 3 -14 6 -6 3 7 2 16 -1 19 -3 4 -6 -2 -5 -13z"/>
<path d="M3086 882 c-3 -5 1 -9 9 -9 8 0 12 4 9 9 -3 4 -7 8 -9 8 -2 0 -6 -4
-9 -8z"/>
<path d="M2920 847 c0 -8 7 -14 15 -14 11 0 12 4 4 14 -6 7 -13 13 -15 13 -2
0 -4 -6 -4 -13z"/>
<path d="M2886 842 c-3 -5 1 -9 9 -9 8 0 12 4 9 9 -3 4 -7 8 -9 8 -2 0 -6 -4
-9 -8z"/>
<path d="M2883 365 c0 -6 6 -12 12 -12 6 0 12 6 12 12 0 6 -6 12 -12 12 -6 0
-12 -6 -12 -12z"/>
<path d="M2880 285 c0 -6 6 -12 13 -12 8 0 14 6 14 12 0 6 -6 12 -14 12 -7 0
-13 -6 -13 -12z"/>
<path d="M3289 283 c-8 -9 -9 -14 -2 -10 7 4 13 0 15 -9 2 -13 7 -11 26 8 17
19 19 25 7 25 -8 0 -15 -7 -15 -14 0 -8 -5 -11 -10 -8 -6 4 -8 11 -5 16 10 15
-2 10 -16 -8z"/>
<path d="M3200 242 c0 -12 3 -12 15 -2 8 7 15 13 15 15 0 1 -7 2 -15 2 -8 0
-15 -7 -15 -15z"/>
<path d="M2923 165 c0 -6 6 -12 12 -12 6 0 12 6 12 12 0 6 -6 12 -12 12 -6 0
-12 -6 -12 -12z"/>
<path d="M3083 165 c0 -6 6 -12 12 -12 6 0 12 6 12 12 0 6 -6 12 -12 12 -6 0
-12 -6 -12 -12z"/>
<path d="M3123 165 c0 -6 6 -12 12 -12 6 0 12 6 12 12 0 6 -6 12 -12 12 -6 0
-12 -6 -12 -12z"/>
<path d="M3043 125 c0 -6 6 -12 12 -12 6 0 12 6 12 12 0 6 -6 12 -12 12 -6 0
-12 -6 -12 -12z"/>
<path d="M3083 124 c0 -7 4 -12 8 -11 4 1 6 -2 6 -8 -1 -5 -4 -9 -7 -8 -3 1
-11 -10 -18 -25 l-12 -26 30 29 c20 20 27 32 20 40 -5 7 -8 14 -5 17 3 2 -1 5
-8 5 -8 0 -14 -6 -14 -13z"/>
<path d="M1001 6954 c0 -11 3 -14 6 -6 3 7 2 16 -1 19 -3 4 -6 -2 -5 -13z"/>
<path d="M1083 6957 c0 -8 6 -14 14 -14 9 0 10 4 2 14 -6 7 -12 13 -14 13 -1
0 -2 -6 -2 -13z"/>
<path d="M1662 6945 c0 -16 2 -22 5 -12 2 9 2 23 0 30 -3 6 -5 -1 -5 -18z"/>
<path d="M1719 6968 c-6 -20 -6 -39 0 -42 4 -3 7 6 7 20 0 20 -4 32 -7 22z"/>
<path d="M1071 6916 c-9 -10 -8 -16 4 -26 8 -7 13 -16 10 -19 -2 -4 3 -8 11
-8 11 0 10 5 -6 22 -15 16 -17 24 -8 33 7 7 9 12 6 12 -3 0 -11 -6 -17 -14z"/>
<path d="M1661 6894 c0 -11 3 -14 6 -6 3 7 2 16 -1 19 -3 4 -6 -2 -5 -13z"/>
<path d="M843 6877 c0 -8 6 -14 14 -14 9 0 10 4 2 14 -6 7 -12 13 -14 13 -1 0
-2 -6 -2 -13z"/>
<path d="M900 6866 c0 -2 8 -10 18 -17 15 -13 16 -12 3 4 -13 16 -21 21 -21
13z"/>
<path d="M1195 6850 c8 -9 12 -20 8 -25 -5 -4 -2 -5 5 -1 9 6 10 11 3 20 -6 7
-9 15 -6 18 3 2 -2 5 -10 5 -13 0 -13 -2 0 -17z"/>
<path d="M1661 6854 c0 -11 3 -14 6 -6 3 7 2 16 -1 19 -3 4 -6 -2 -5 -13z"/>
<path d="M841 6834 c0 -11 3 -14 6 -6 3 7 2 16 -1 19 -3 4 -6 -2 -5 -13z"/>
<path d="M2000 6846 c0 -2 8 -10 18 -17 15 -13 16 -12 3 4 -13 16 -21 21 -21
13z"/>
<path d="M2043 6837 c0 -8 6 -14 14 -14 9 0 10 4 2 14 -6 7 -12 13 -14 13 -1
0 -2 -6 -2 -13z"/>
<path d="M3080 6840 c0 -5 5 -10 11 -10 5 0 7 5 4 10 -3 6 -8 10 -11 10 -2 0
-4 -4 -4 -10z"/>
<path d="M1077 6822 c-14 -15 -14 -19 -3 -19 8 0 14 5 13 11 -1 6 4 10 11 8 8
-1 11 2 7 8 -8 13 -9 13 -28 -8z"/>
<path d="M1661 6814 c0 -11 3 -14 6 -6 3 7 2 16 -1 19 -3 4 -6 -2 -5 -13z"/>
<path d="M3042 6800 c0 -14 2 -19 5 -12 2 6 2 18 0 25 -3 6 -5 1 -5 -13z"/>
<path d="M963 6797 c0 -8 6 -14 14 -14 9 0 10 4 2 14 -6 7 -12 13 -14 13 -1 0
-2 -6 -2 -13z"/>
<path d="M3403 6797 c0 -8 6 -14 14 -14 9 0 10 4 2 14 -6 7 -12 13 -14 13 -1
0 -2 -6 -2 -13z"/>
<path d="M4523 6795 c0 -8 4 -12 9 -9 5 3 6 10 3 15 -9 13 -12 11 -12 -6z"/>
<path d="M1050 6774 c-11 -12 -11 -15 1 -12 9 2 13 -4 11 -17 -3 -18 -2 -18
13 3 9 12 14 28 12 35 -3 7 -6 4 -6 -6 -1 -10 -6 -15 -11 -12 -6 4 -8 11 -5
16 10 15 -1 10 -15 -7z"/>
<path d="M1661 6774 c0 -11 3 -14 6 -6 3 7 2 16 -1 19 -3 4 -6 -2 -5 -13z"/>
<path d="M1941 6774 c0 -11 3 -14 6 -6 3 7 2 16 -1 19 -3 4 -6 -2 -5 -13z"/>
<path d="M960 6765 c0 -2 6 -8 13 -14 10 -8 14 -7 14 2 0 8 -6 14 -14 14 -7 0
-13 -1 -13 -2z"/>
<path d="M2040 6760 c0 -5 5 -10 11 -10 5 0 7 5 4 10 -3 6 -8 10 -11 10 -2 0
-4 -4 -4 -10z"/>
<path d="M2080 6760 c0 -5 5 -10 11 -10 5 0 7 5 4 10 -3 6 -8 10 -11 10 -2 0
-4 -4 -4 -10z"/>
<path d="M2160 6761 c0 -5 7 -12 16 -15 14 -5 15 -4 4 9 -14 17 -20 19 -20 6z"/>
<path d="M2240 6760 c0 -5 5 -10 11 -10 5 0 7 5 4 10 -3 6 -8 10 -11 10 -2 0
-4 -4 -4 -10z"/>
<path d="M2440 6766 c0 -2 8 -10 18 -17 15 -13 16 -12 3 4 -13 16 -21 21 -21
13z"/>
<path d="M2520 6760 c0 -6 7 -10 15 -10 8 0 15 2 15 4 0 2 -7 6 -15 10 -8 3
-15 1 -15 -4z"/>
<path d="M2560 6760 c0 -5 5 -10 11 -10 5 0 7 5 4 10 -3 6 -8 10 -11 10 -2 0
-4 -4 -4 -10z"/>
<path d="M2600 6760 c0 -5 5 -10 11 -10 5 0 7 5 4 10 -3 6 -8 10 -11 10 -2 0
-4 -4 -4 -10z"/>
<path d="M2640 6760 c0 -5 5 -10 11 -10 5 0 7 5 4 10 -3 6 -8 10 -11 10 -2 0
-4 -4 -4 -10z"/>
<path d="M2680 6760 c0 -5 5 -10 11 -10 5 0 7 5 4 10 -3 6 -8 10 -11 10 -2 0
-4 -4 -4 -10z"/>
<path d="M2739 6746 c10 -12 21 -28 24 -36 5 -13 6 -12 6 1 1 9 -6 22 -14 29
-8 7 -13 16 -10 19 2 4 -3 8 -11 8 -11 0 -10 -5 5 -21z"/>
<path d="M2800 6760 c0 -5 5 -10 11 -10 5 0 7 5 4 10 -3 6 -8 10 -11 10 -2 0
-4 -4 -4 -10z"/>
<path d="M2880 6760 c0 -5 5 -10 11 -10 5 0 7 5 4 10 -3 6 -8 10 -11 10 -2 0
-4 -4 -4 -10z"/>
<path d="M2920 6760 c0 -5 5 -10 11 -10 5 0 7 5 4 10 -3 6 -8 10 -11 10 -2 0
-4 -4 -4 -10z"/>
<path d="M2960 6760 c0 -5 5 -10 11 -10 5 0 7 5 4 10 -3 6 -8 10 -11 10 -2 0
-4 -4 -4 -10z"/>
<path d="M3017 6750 c19 -22 23 -40 26 -120 l3 -95 2 96 c2 93 1 96 -25 120
l-28 24 22 -25z"/>
<path d="M3115 6761 c-3 -5 -2 -12 3 -15 5 -3 9 1 9 9 0 17 -3 19 -12 6z"/>
<path d="M3240 6760 c0 -5 5 -10 11 -10 5 0 7 5 4 10 -3 6 -8 10 -11 10 -2 0
-4 -4 -4 -10z"/>
<path d="M3280 6760 c0 -5 5 -10 11 -10 5 0 7 5 4 10 -3 6 -8 10 -11 10 -2 0
-4 -4 -4 -10z"/>
<path d="M3320 6766 c0 -2 8 -10 18 -17 15 -13 16 -12 3 4 -13 16 -21 21 -21
13z"/>
<path d="M3400 6766 c0 -2 8 -10 18 -17 15 -13 16 -12 3 4 -13 16 -21 21 -21
13z"/>
<path d="M3604 6753 c2 -10 6 -17 10 -16 15 3 16 11 2 22 -12 10 -14 9 -12 -6z"/>
<path d="M781 6734 c0 -11 3 -14 6 -6 3 7 2 16 -1 19 -3 4 -6 -2 -5 -13z"/>
<path d="M1661 6734 c0 -11 3 -14 6 -6 3 7 2 16 -1 19 -3 4 -6 -2 -5 -13z"/>
<path d="M1941 6734 c0 -11 3 -14 6 -6 3 7 2 16 -1 19 -3 4 -6 -2 -5 -13z"/>
<path d="M2211 6736 c-8 -10 -8 -16 2 -24 10 -9 13 -6 13 13 0 29 0 29 -15 11z"/>
<path d="M1043 6715 c0 -8 4 -12 9 -9 5 3 6 10 3 15 -9 13 -12 11 -12 -6z"/>
<path d="M3521 6714 c0 -11 3 -14 6 -6 3 7 2 16 -1 19 -3 4 -6 -2 -5 -13z"/>
<path d="M2286 6712 c-3 -5 1 -9 9 -9 8 0 12 4 9 9 -3 4 -7 8 -9 8 -2 0 -6 -4
-9 -8z"/>
<path d="M3613 6705 c0 -8 4 -12 9 -9 5 3 6 10 3 15 -9 13 -12 11 -12 -6z"/>
<path d="M1661 6694 c0 -11 3 -14 6 -6 3 7 2 16 -1 19 -3 4 -6 -2 -5 -13z"/>
<path d="M1941 6694 c0 -11 3 -14 6 -6 3 7 2 16 -1 19 -3 4 -6 -2 -5 -13z"/>
<path d="M991 6677 c-8 -10 -7 -14 2 -14 8 0 14 6 14 14 0 7 -1 13 -2 13 -2 0
-8 -6 -14 -13z"/>
<path d="M2215 6681 c-3 -5 -2 -12 3 -15 5 -3 9 1 9 9 0 17 -3 19 -12 6z"/>
<path d="M2480 6674 c0 -8 5 -12 10 -9 6 4 8 11 5 16 -9 14 -15 11 -15 -7z"/>
<path d="M2761 6674 c0 -11 3 -14 6 -6 3 7 2 16 -1 19 -3 4 -6 -2 -5 -13z"/>
<path d="M3521 6674 c0 -11 3 -14 6 -6 3 7 2 16 -1 19 -3 4 -6 -2 -5 -13z"/>
<path d="M2086 6672 c-3 -5 1 -9 9 -9 8 0 12 4 9 9 -3 4 -7 8 -9 8 -2 0 -6 -4
-9 -8z"/>
<path d="M2286 6672 c-3 -5 1 -9 9 -9 8 0 12 4 9 9 -3 4 -7 8 -9 8 -2 0 -6 -4
-9 -8z"/>
<path d="M2573 6665 c0 -8 4 -12 9 -9 5 3 6 10 3 15 -9 13 -12 11 -12 -6z"/>
<path d="M2646 6672 c-3 -5 1 -9 9 -9 8 0 12 4 9 9 -3 4 -7 8 -9 8 -2 0 -6 -4
-9 -8z"/>
<path d="M2683 6630 c0 -30 2 -43 4 -27 2 15 2 39 0 55 -2 15 -4 2 -4 -28z"/>
<path d="M3246 6672 c-3 -5 1 -9 9 -9 8 0 12 4 9 9 -3 4 -7 8 -9 8 -2 0 -6 -4
-9 -8z"/>
<path d="M3613 6665 c0 -8 4 -12 9 -9 5 3 6 10 3 15 -9 13 -12 11 -12 -6z"/>
<path d="M1661 6654 c0 -11 3 -14 6 -6 3 7 2 16 -1 19 -3 4 -6 -2 -5 -13z"/>
<path d="M1941 6654 c0 -11 3 -14 6 -6 3 7 2 16 -1 19 -3 4 -6 -2 -5 -13z"/>
<path d="M721 6634 c0 -11 3 -14 6 -6 3 7 2 16 -1 19 -3 4 -6 -2 -5 -13z"/>
<path d="M1001 6634 c0 -11 3 -14 6 -6 3 7 2 16 -1 19 -3 4 -6 -2 -5 -13z"/>
<path d="M2210 6641 c0 -6 4 -12 8 -15 5 -3 9 1 9 9 0 8 -4 15 -9 15 -4 0 -8
-4 -8 -9z"/>
<path d="M2483 6635 c0 -8 4 -12 9 -9 5 3 6 10 3 15 -9 13 -12 11 -12 -6z"/>
<path d="M2763 6615 c0 -22 2 -30 4 -17 2 12 2 30 0 40 -3 9 -5 -1 -4 -23z"/>
<path d="M2855 6641 c-3 -5 -2 -12 3 -15 5 -3 9 1 9 9 0 17 -3 19 -12 6z"/>
<path d="M3323 6635 c0 -8 4 -12 9 -9 5 3 6 10 3 15 -9 13 -12 11 -12 -6z"/>
<path d="M966 6632 c-3 -5 1 -9 9 -9 8 0 12 4 9 9 -3 4 -7 8 -9 8 -2 0 -6 -4
-9 -8z"/>
<path d="M2286 6632 c-3 -5 1 -9 9 -9 8 0 12 4 9 9 -3 4 -7 8 -9 8 -2 0 -6 -4
-9 -8z"/>
<path d="M3214 6624 c3 -21 33 -28 33 -8 0 8 -3 12 -5 9 -3 -3 -11 0 -18 6 -9
7 -12 6 -10 -7z"/>
<path d="M3613 6625 c0 -8 4 -12 9 -9 5 3 6 10 3 15 -9 13 -12 11 -12 -6z"/>
<path d="M1661 6614 c0 -11 3 -14 6 -6 3 7 2 16 -1 19 -3 4 -6 -2 -5 -13z"/>
<path d="M1941 6614 c0 -11 3 -14 6 -6 3 7 2 16 -1 19 -3 4 -6 -2 -5 -13z"/>
<path d="M3423 6615 c0 -6 6 -12 12 -12 6 0 12 6 12 12 0 6 -6 12 -12 12 -6 0
-12 -6 -12 -12z"/>
<path d="M3521 6614 c0 -11 3 -14 6 -6 3 7 2 16 -1 19 -3 4 -6 -2 -5 -13z"/>
<path d="M963 6594 c0 -7 6 -10 14 -7 7 3 13 8 13 12 0 4 -6 8 -13 8 -8 0 -14
-6 -14 -13z"/>
<path d="M2217 6603 c-6 -10 -2 -51 4 -58 3 -3 6 11 6 30 0 35 -2 41 -10 28z"/>
<path d="M2480 6589 c0 -5 5 -7 10 -4 6 3 10 8 10 11 0 2 -4 4 -10 4 -5 0 -10
-5 -10 -11z"/>
<path d="M3613 6585 c0 -8 4 -12 9 -9 5 3 6 10 3 15 -9 13 -12 11 -12 -6z"/>
<path d="M930 6575 c-7 -8 -9 -15 -5 -15 5 0 0 -10 -11 -22 -19 -23 -19 -23 2
-5 11 9 25 14 29 10 5 -5 4 -1 -3 8 -9 12 -9 18 0 27 7 7 9 12 6 12 -3 0 -11
-7 -18 -15z"/>
<path d="M1356 6581 c-3 -4 4 -17 17 -27 22 -19 22 -19 4 2 -9 11 -14 24 -10
27 3 4 4 7 0 7 -3 0 -8 -4 -11 -9z"/>
<path d="M1661 6574 c0 -11 3 -14 6 -6 3 7 2 16 -1 19 -3 4 -6 -2 -5 -13z"/>
<path d="M1941 6574 c0 -11 3 -14 6 -6 3 7 2 16 -1 19 -3 4 -6 -2 -5 -13z"/>
<path d="M2123 6555 c0 -8 4 -12 9 -9 5 3 6 10 3 15 -9 13 -12 11 -12 -6z"/>
<path d="M2682 6545 c0 -16 2 -22 5 -12 2 9 2 23 0 30 -3 6 -5 -1 -5 -18z"/>
<path d="M3614 6525 c0 -19 3 -32 5 -29 8 7 9 54 2 59 -4 2 -7 -12 -7 -30z"/>
<path d="M661 6534 c0 -11 3 -14 6 -6 3 7 2 16 -1 19 -3 4 -6 -2 -5 -13z"/>
<path d="M1661 6534 c0 -11 3 -14 6 -6 3 7 2 16 -1 19 -3 4 -6 -2 -5 -13z"/>
<path d="M2471 6537 c-8 -10 -7 -14 2 -14 8 0 14 6 14 14 0 7 -1 13 -2 13 -2
0 -8 -6 -14 -13z"/>
<path d="M2784 6529 c-4 -7 -3 -9 4 -5 6 4 12 -4 14 -19 l3 -25 12 26 c7 15
10 24 6 20 -3 -3 -12 -1 -19 5 -8 7 -14 6 -20 -2z"/>
<path d="M641 6494 c0 -11 3 -14 6 -6 3 7 2 16 -1 19 -3 4 -6 -2 -5 -13z"/>
<path d="M921 6494 c0 -11 3 -14 6 -6 3 7 2 16 -1 19 -3 4 -6 -2 -5 -13z"/>
<path d="M1661 6494 c0 -11 3 -14 6 -6 3 7 2 16 -1 19 -3 4 -6 -2 -5 -13z"/>
<path d="M889 6498 c-6 -21 -5 -37 2 -32 5 3 9 0 9 -7 0 -7 3 -9 6 -6 4 4 2
13 -4 20 -7 8 -9 17 -5 20 3 4 3 7 0 7 -4 0 -7 -1 -8 -2z"/>
<path d="M1400 6486 c0 -2 8 -10 18 -17 15 -13 16 -12 3 4 -13 16 -21 21 -21
13z"/>
<path d="M1661 6454 c0 -11 3 -14 6 -6 3 7 2 16 -1 19 -3 4 -6 -2 -5 -13z"/>
<path d="M600 6434 c0 -8 5 -12 10 -9 6 4 8 11 5 16 -9 14 -15 11 -15 -7z"/>
<path d="M855 6441 c-3 -5 -2 -12 3 -15 5 -3 9 1 9 9 0 17 -3 19 -12 6z"/>
<path d="M881 6434 c0 -11 3 -14 6 -6 3 7 2 16 -1 19 -3 4 -6 -2 -5 -13z"/>
<path d="M1661 6414 c0 -11 3 -14 6 -6 3 7 2 16 -1 19 -3 4 -6 -2 -5 -13z"/>
<path d="M1714 6396 c1 -14 4 -28 7 -31 3 -3 5 6 5 19 -1 14 -4 28 -7 31 -3 3
-5 -6 -5 -19z"/>
<path d="M861 6394 c0 -11 3 -14 6 -6 3 7 2 16 -1 19 -3 4 -6 -2 -5 -13z"/>
<path d="M1460 6386 c0 -2 8 -10 18 -17 15 -13 16 -12 3 4 -13 16 -21 21 -21
13z"/>
<path d="M1661 6374 c0 -11 3 -14 6 -6 3 7 2 16 -1 19 -3 4 -6 -2 -5 -13z"/>
<path d="M561 6354 c0 -11 3 -14 6 -6 3 7 2 16 -1 19 -3 4 -6 -2 -5 -13z"/>
<path d="M802 6350 c-7 -12 -8 -21 -2 -25 6 -4 9 -2 8 3 -2 6 2 10 7 10 6 0 9
-4 7 -10 -1 -5 2 -7 8 -3 8 5 7 12 -2 23 -7 10 -13 18 -13 19 0 1 -6 -6 -13
-17z"/>
<path d="M1486 6338 c3 -5 10 -6 15 -3 13 9 11 12 -6 12 -8 0 -12 -4 -9 -9z"/>
<path d="M1661 6334 c0 -11 3 -14 6 -6 3 7 2 16 -1 19 -3 4 -6 -2 -5 -13z"/>
<path d="M1715 6341 c-3 -5 -2 -12 3 -15 5 -3 9 1 9 9 0 17 -3 19 -12 6z"/>
<path d="M4006 6272 c-3 -5 1 -9 9 -9 8 0 12 4 9 9 -3 4 -7 8 -9 8 -2 0 -6 -4
-9 -8z"/>
<path d="M3723 6037 c0 -8 6 -14 14 -14 9 0 10 4 2 14 -6 7 -12 13 -14 13 -1
0 -2 -6 -2 -13z"/>
<path d="M3483 5917 c0 -8 6 -14 14 -14 9 0 10 4 2 14 -6 7 -12 13 -14 13 -1
0 -2 -6 -2 -13z"/>
<path d="M6483 2823 c9 -9 20 -13 24 -9 4 4 1 11 -7 16 -25 16 -35 11 -17 -7z"/>
<path d="M6900 2809 c0 -5 -4 -8 -8 -5 -5 3 -9 -1 -9 -9 0 -8 4 -12 9 -9 4 3
8 -2 8 -11 0 -10 -5 -13 -12 -9 -10 6 -10 5 -1 -7 6 -8 11 -30 11 -49 -1 -65
5 -75 12 -25 12 72 12 135 0 135 -5 0 -10 -5 -10 -11z"/>
<path d="M7172 2758 c-7 -7 -16 -13 -20 -14 -17 -2 -61 -24 -66 -33 -7 -11 8
-9 44 6 14 6 32 9 41 8 10 -2 15 5 15 21 0 13 0 24 -1 24 -1 0 -7 -6 -13 -12z"/>
</g>
</svg>
